<svg width="6" height="6" viewBox="0 0 6 6" fill="none" xmlns="http://www.w3.org/2000/svg">
<path fill-rule="evenodd" clip-rule="evenodd" d="M4.87525 0.25C4.9445 0.25 5.00025 0.306 5.00025 0.375V1.227L5.723 2.12975C5.72425 2.13125 5.7245 2.13325 5.72575 2.135C5.72675 2.13625 5.728 2.13675 5.72875 2.138C5.731 2.14125 5.73125 2.14525 5.73325 2.1485C5.7365 2.15425 5.73925 2.15975 5.74175 2.166L5.74625 2.17975C5.7475 2.1855 5.7475 2.191 5.748 2.1965C5.74825 2.2005 5.75 2.20375 5.75 2.20775V4.27725C5.75 4.48875 5.6805 4.683 5.56575 4.84275C5.562 4.8485 5.56025 4.855 5.5555 4.86025C5.55225 4.864 5.548 4.8655 5.54425 4.86875C5.36625 5.099 5.0905 5.25 4.7775 5.25H1.72275C1.41525 5.25 1.144 5.10375 0.96575 4.88025C0.9575 4.87475 0.94875 4.87075 0.942 4.86325C0.93175 4.8515 0.925 4.8385 0.9195 4.82475C0.81275 4.6685 0.75 4.48025 0.75 4.27725V2.20775C0.75 2.20325 0.75175 2.199 0.75225 2.1945C0.753 2.18825 0.75375 2.1825 0.7555 2.1765C0.75825 2.16675 0.762 2.1575 0.767 2.14875C0.769 2.14525 0.76925 2.14125 0.77125 2.138C0.77225 2.13675 0.7735 2.13625 0.7745 2.135L0.7775 2.12975L1.50025 1.22675V0.375C1.50025 0.306 1.55625 0.25 1.62525 0.25H4.87525ZM3.416 3.12875C3.322 3.0445 3.17975 3.04425 3.08475 3.1285L1.2135 4.78925C1.34425 4.9195 1.52425 5 1.72275 5H4.7775C4.97625 5 5.15625 4.91925 5.287 4.789L3.416 3.12875ZM1 2.44225V4.27725C1 4.38675 1.0265 4.4895 1.07 4.58225L2.41275 3.39075L1 2.44225ZM5.5 2.44225L4.088 3.39075L5.43025 4.582C5.474 4.489 5.5 4.3865 5.5 4.27725V2.44225ZM4.75025 0.5H1.75025V2.645L2.60575 3.21925L2.91875 2.94175C3.108 2.773 3.39375 2.7735 3.58225 2.942L3.89475 3.21925L4.75025 2.64475V0.5ZM1.50025 1.62675L1.0575 2.17975L1.50025 2.477V1.62675ZM5.00025 1.62725V2.477L5.44275 2.17975L5.00025 1.62725ZM4.1251 1.75C4.1941 1.75 4.2501 1.806 4.2501 1.875C4.2501 1.944 4.1941 2 4.1251 2H2.3751C2.3061 2 2.2501 1.944 2.2501 1.875C2.2501 1.806 2.3061 1.75 2.3751 1.75H4.1251ZM4.1251 1C4.1941 1 4.2501 1.056 4.2501 1.125C4.2501 1.194 4.1941 1.25 4.1251 1.25H2.3751C2.3061 1.25 2.2501 1.194 2.2501 1.125C2.2501 1.056 2.3061 1 2.3751 1H4.1251Z" fill="#191919"/>
</svg>
