<svg width="6" height="6" viewBox="0 0 6 6" fill="none" xmlns="http://www.w3.org/2000/svg">
<path fill-rule="evenodd" clip-rule="evenodd" d="M3.2594 0.561096C3.52991 0.561096 3.75 0.781189 3.75 1.0517V1.18732C3.75 1.25641 3.69409 1.31232 3.625 1.31232C3.55591 1.31232 3.5 1.25641 3.5 1.18732V1.0517C3.5 0.919006 3.39209 0.811096 3.2594 0.811096H1.2406C1.10791 0.811096 1 0.919006 1 1.0517V5.0705C1 5.20319 1.10791 5.3111 1.2406 5.3111H3.2594C3.39209 5.3111 3.5 5.20319 3.5 5.0705V4.68634C3.5 4.61725 3.55591 4.56134 3.625 4.56134C3.69409 4.56134 3.75 4.61725 3.75 4.68634V5.0705C3.75 5.341 3.52991 5.5611 3.2594 5.5611H1.2406C0.970093 5.5611 0.75 5.341 0.75 5.0705V1.0517C0.75 0.781189 0.970093 0.561096 1.2406 0.561096H3.2594ZM2.375 4.8111C2.44409 4.8111 2.5 4.867 2.5 4.9361C2.5 5.00519 2.44409 5.0611 2.375 5.0611H2.125C2.05591 5.0611 2 5.00519 2 4.9361C2 4.867 2.05591 4.8111 2.125 4.8111H2.375ZM5.26001 1.8111C5.53015 1.8111 5.75 2.03094 5.75 2.30109V3.3205C5.75 3.591 5.52991 3.8111 5.2594 3.8111H3.67676L2.96338 4.52448C2.93945 4.5484 2.90747 4.5611 2.875 4.5611C2.85889 4.5611 2.84265 4.55804 2.82715 4.55157C2.7804 4.53229 2.75 4.48663 2.75 4.4361L2.7406 3.8111C2.47009 3.8111 2.25 3.591 2.25 3.3205V2.3017C2.25 2.03119 2.47009 1.8111 2.7406 1.8111H5.26001ZM5.26001 2.0611H2.7406C2.60791 2.0611 2.5 2.16901 2.5 2.3017V3.3205C2.5 3.45319 2.60791 3.5611 2.7406 3.5611H2.875C2.94409 3.5611 3 3.617 3 3.6861V4.13434L3.53662 3.59772C3.56006 3.57428 3.5918 3.5611 3.625 3.5611H5.2594C5.39209 3.5611 5.5 3.45319 5.5 3.3205V2.30109C5.5 2.16876 5.39233 2.0611 5.26001 2.0611ZM3.375 2.8111C3.44409 2.8111 3.5 2.867 3.5 2.9361C3.5 3.00519 3.44409 3.0611 3.375 3.0611H3.125C3.05591 3.0611 3 3.00519 3 2.9361C3 2.867 3.05591 2.8111 3.125 2.8111H3.375ZM4.875 2.8111C4.94409 2.8111 5 2.867 5 2.9361C5 3.00519 4.94409 3.0611 4.875 3.0611H4.625C4.55591 3.0611 4.5 3.00519 4.5 2.9361C4.5 2.867 4.55591 2.8111 4.625 2.8111H4.875ZM4.125 2.8111C4.19409 2.8111 4.25 2.867 4.25 2.9361C4.25 3.00519 4.19409 3.0611 4.125 3.0611H3.875C3.80591 3.0611 3.75 3.00519 3.75 2.9361C3.75 2.867 3.80591 2.8111 3.875 2.8111H4.125ZM2.625 1.0611C2.69409 1.0611 2.75 1.117 2.75 1.1861C2.75 1.25519 2.69409 1.3111 2.625 1.3111H1.875C1.80591 1.3111 1.75 1.25519 1.75 1.1861C1.75 1.117 1.80591 1.0611 1.875 1.0611H2.625Z" fill="#191919"/>
</svg>
