<svg width="57" height="57" viewBox="0 0 57 57" fill="none" xmlns="http://www.w3.org/2000/svg">
<path fill-rule="evenodd" clip-rule="evenodd" d="M27.1186 48.5809C14.5035 46.7238 12.5663 43.9493 10.7364 40.8954C7.19314 34.9813 10.2634 24.3705 17.5366 24.4293C24.6318 25.9 23.1699 13.949 36.8081 17.8247C45.3527 20.253 49.1679 27.145 47.2527 33.7649C45.3372 40.3848 39.7334 50.4381 27.1186 48.5809Z" fill="#E5E5E5"/>
<path fill-rule="evenodd" clip-rule="evenodd" d="M31.1164 8.19348C31.3139 8.19348 31.4733 8.35142 31.4733 8.5468V10.6735C31.4733 10.8685 31.3139 11.0268 31.1164 11.0268C30.9193 11.0268 30.7596 10.8685 30.7596 10.6735V8.5468C30.7596 8.35142 30.9193 8.19348 31.1164 8.19348ZM33.4659 12.6673H35.6084C35.8055 12.6673 35.9656 12.8252 35.9656 13.0202C35.9656 13.2156 35.8055 13.3736 35.6084 13.3736H33.4659C33.2684 13.3736 33.109 13.2156 33.109 13.0202C33.109 12.8252 33.2684 12.6673 33.4659 12.6673ZM34.3083 9.44794C34.4482 9.30997 34.6737 9.30961 34.8126 9.44794C34.9518 9.58592 34.9514 9.80982 34.8119 9.94779L32.901 11.7832C32.7611 11.9211 32.5355 11.9211 32.3967 11.7832C32.2575 11.6452 32.2578 11.4213 32.3974 11.283L34.3083 9.44794Z" fill="#EC0000"/>
<path fill-rule="evenodd" clip-rule="evenodd" d="M15.1617 16.0605L15.5448 16.4405L16.0704 15.9193L16.5963 16.4405L16.9797 16.0605L16.4538 15.5396L16.9797 15.0187L16.5963 14.6387L16.0704 15.1595L15.5448 14.6383L15.1613 15.0184L15.6872 15.5396L15.1617 16.0605Z" fill="#6EE3FF"/>
<path fill-rule="evenodd" clip-rule="evenodd" d="M41.3665 32.36C42.0622 32.36 42.6255 31.8014 42.6255 31.1122C42.6255 30.4231 42.0622 29.8644 41.3665 29.8644C40.6707 29.8644 40.1074 30.4231 40.1074 31.1122C40.1074 31.8014 40.6707 32.36 41.3665 32.36ZM41.3665 31.647C41.0686 31.647 40.8269 31.4078 40.8269 31.1122C40.8269 30.8167 41.0686 30.5774 41.3665 30.5774C41.6643 30.5774 41.906 30.8167 41.906 31.1122C41.906 31.4078 41.6643 31.647 41.3665 31.647Z" fill="#0D4F80"/>
<path fill-rule="evenodd" clip-rule="evenodd" d="M15.1617 33.1736L15.5448 33.5533L16.0704 33.0325L16.5963 33.5537L16.9797 33.1736L16.4538 32.6524L16.9797 32.1315L16.5963 31.7515L16.0704 32.2727L15.5448 31.7515L15.1613 32.1315L15.6872 32.6528L15.1617 33.1736Z" fill="white"/>
<path fill-rule="evenodd" clip-rule="evenodd" d="M23.4607 40.1317C23.492 40.1188 23.5183 40.0985 23.5435 40.0771C23.5492 40.0725 23.5561 40.0707 23.5607 40.0657C23.619 40.0101 23.655 39.9327 23.6582 39.8472H25.3529C25.3529 39.8475 25.3532 39.8479 25.3536 39.8486C25.3568 39.9338 25.3921 40.0105 25.4504 40.0657C25.4554 40.0707 25.4622 40.0728 25.468 40.0775C25.4932 40.0989 25.5194 40.1188 25.5507 40.1317C25.5885 40.1474 25.6302 40.1566 25.6745 40.1566H40.1221V41.6298H17.3875V40.1566H23.3366C23.3805 40.1566 23.423 40.1474 23.4607 40.1317Z" fill="white"/>
<path fill-rule="evenodd" clip-rule="evenodd" d="M40.1223 42.7235H17.3878V41.6296H40.1223V42.7235Z" fill="#EC0000"/>
<path fill-rule="evenodd" clip-rule="evenodd" d="M25.2162 28.3506H33.2114L33.9766 31.6891H24.4201L25.2162 28.3506Z" fill="#EC0000"/>
<path fill-rule="evenodd" clip-rule="evenodd" d="M25.9232 25.3889L28.5283 14.4636H30.0305L32.5334 25.3889H25.9232Z" fill="#EC0000"/>
<path fill-rule="evenodd" clip-rule="evenodd" d="M23.6583 39.8471C23.6583 39.8431 23.6609 39.8396 23.6609 39.8357C23.6609 39.6585 23.5159 39.5148 23.3368 39.5148H22.5544L23.7141 34.65H34.6547L35.7695 39.5148H25.6746C25.4955 39.5148 25.3508 39.6585 25.3508 39.8357C25.3508 39.8396 25.353 39.8431 25.353 39.8471H23.6583Z" fill="#EC0000"/>
<path fill-rule="evenodd" clip-rule="evenodd" d="M22.6836 34.0011L23.2132 31.6891L23.5984 30.007L23.9779 28.3506L24.656 25.3889L27.1583 14.4636H28.5277L25.9226 25.3889H32.5329L33.2113 28.3506H25.2161L24.42 31.6891H33.9765L34.6545 34.65H23.7139L22.5541 39.5147H21.4207L22.6836 34.0011Z" fill="white"/>
<path fill-rule="evenodd" clip-rule="evenodd" d="M17.388 41.6296V42.7235H40.1225V41.6296V40.1565H25.6749C25.6307 40.1565 25.589 40.1476 25.5508 40.1315C25.5199 40.1187 25.4933 40.0991 25.4684 40.0773C25.4627 40.0731 25.4559 40.0706 25.4508 40.0656C25.3936 40.0103 25.3573 39.9333 25.3541 39.8485C25.3537 39.8477 25.3533 39.8474 25.3533 39.847C25.3533 39.8431 25.3512 39.8395 25.3512 39.8356C25.3512 39.6584 25.4958 39.5147 25.6749 39.5147H35.7699L34.6551 34.65L33.9766 31.6891L33.2115 28.3506L32.5334 25.3889L30.0305 14.4636H28.5283H27.1588L24.6565 25.3889L23.9781 28.3506L23.599 30.007L23.2133 31.6891L22.6842 34.0011L21.4212 39.5147H22.5543H23.3371C23.5159 39.5147 23.6608 39.6584 23.6608 39.8356C23.6608 39.8395 23.6587 39.8431 23.6587 39.847C23.6554 39.9326 23.6187 40.01 23.5612 40.0656C23.5562 40.0706 23.5497 40.0727 23.5439 40.0773C23.5191 40.0987 23.4921 40.1187 23.4612 40.1315C23.4231 40.1476 23.381 40.1565 23.3371 40.1565H17.388V41.6296ZM20.7571 39.5147L26.6419 13.8215H30.5474L36.4335 39.5147H40.77V43.3652H16.7405V39.5147H20.7571Z" fill="#0F2B4A"/>
</svg>
