<svg width="57" height="57" viewBox="0 0 57 57" fill="none" xmlns="http://www.w3.org/2000/svg">
<path fill-rule="evenodd" clip-rule="evenodd" d="M31.0604 43.0842C16.9736 45.3058 9.71918 42.4498 9.29649 34.5161C8.66264 22.6159 17.0694 23.8771 20.6955 20.7746C24.3213 17.6718 22.2445 20.6948 27.0048 13.97C30.1787 9.48661 35.4408 9.20219 42.791 13.1164C48.3333 17.1653 49.2182 22.7925 45.446 29.9987C41.6743 37.2045 36.8791 41.5665 31.0604 43.0842Z" fill="#E5E5E5"/>
<path fill-rule="evenodd" clip-rule="evenodd" d="M22.4124 18.4525L18.4878 18.1057L22.4124 14.3871V18.4525Z" fill="white"/>
<path fill-rule="evenodd" clip-rule="evenodd" d="M37.665 11.7542C37.665 11.9501 37.5068 12.1088 37.3113 12.1088C37.1162 12.1088 36.9581 11.9501 36.9581 11.7542V9.61707C36.9581 9.42113 37.1162 9.26208 37.3113 9.26208C37.5068 9.26208 37.665 9.42113 37.665 9.61707V11.7542ZM39.6371 14.467C39.4419 14.467 39.2838 14.308 39.2838 14.1121C39.2838 13.9161 39.4419 13.7574 39.6371 13.7574H41.758C41.9535 13.7574 42.1116 13.9161 42.1116 14.1121C42.1116 14.308 41.9535 14.467 41.758 14.467H39.6371ZM39.0779 12.8689C38.9397 13.0075 38.7161 13.0079 38.5786 12.8689C38.4408 12.7302 38.4412 12.5053 38.5797 12.3667L40.4713 10.5226C40.6094 10.3839 40.8331 10.3839 40.9705 10.5226C41.1083 10.6612 41.1076 10.8862 40.9695 11.0251L39.0779 12.8689Z" fill="#EC0000"/>
<path fill-rule="evenodd" clip-rule="evenodd" d="M40.6581 23.2153V23.7551H41.3938V24.4955H41.9305V23.7551H42.6665V23.2153H41.9305V22.4749H41.3938V23.2153H40.6581Z" fill="#0D4F80"/>
<path fill-rule="evenodd" clip-rule="evenodd" d="M43.9128 38.9526C44.6015 38.9526 45.1592 38.3912 45.1592 37.6988C45.1592 37.0064 44.6015 36.4451 43.9128 36.4451C43.2245 36.4451 42.6665 37.0064 42.6665 37.6988C42.6665 38.3912 43.2245 38.9526 43.9128 38.9526ZM43.9128 38.2361C43.618 38.2361 43.3787 37.9958 43.3787 37.6988C43.3787 37.4019 43.618 37.1615 43.9128 37.1615C44.2077 37.1615 44.447 37.4019 44.447 37.6988C44.447 37.9958 44.2077 38.2361 43.9128 38.2361Z" fill="#0F2B4A"/>
<path fill-rule="evenodd" clip-rule="evenodd" d="M12.8909 33.4814C12.9675 33.7905 13.2677 33.9836 13.5818 33.9048C13.8891 33.8278 14.0707 33.5136 13.9941 33.2048C13.9176 32.8957 13.612 32.7112 13.3051 32.7879C12.9907 32.867 12.8144 33.1722 12.8909 33.4814ZM14.1027 29.5145C14.0418 29.2684 13.8378 29.1631 13.5465 29.0646C13.1644 28.9292 12.7179 28.8919 12.2357 29.0126C11.3701 29.2301 10.8566 29.9705 11.0513 30.7571C11.177 31.2629 11.4769 31.5158 12.0473 31.7233C12.3023 31.8235 12.5377 31.9364 12.6787 32.1768C12.8201 32.4175 12.9807 32.4963 13.2321 32.4336C13.4692 32.3738 13.6074 32.123 13.543 31.863C13.4892 31.6455 13.33 31.4836 13.1523 31.3342C12.929 31.1515 12.6516 31.0495 12.3393 30.8969C12.1371 30.7983 12.0306 30.6683 11.9939 30.5207C11.9177 30.2119 12.1146 29.9307 12.5128 29.8312C12.8062 29.7574 12.9771 29.7893 13.2107 29.8648C13.4532 29.9458 13.5793 30.0934 13.8093 30.0357C14.0329 29.9795 14.1601 29.7463 14.1027 29.5145Z" fill="white"/>
<path fill-rule="evenodd" clip-rule="evenodd" d="M14.0553 13.9787L14.4345 14.3602L14.9548 13.8369L15.4754 14.3606L15.855 13.9787L15.3347 13.4554L15.855 12.9317L15.4754 12.5502L14.9551 13.0735L14.4345 12.5498L14.0549 12.9317L14.5755 13.4554L14.0553 13.9787Z" fill="#6EE3FF"/>
<path fill-rule="evenodd" clip-rule="evenodd" d="M15.7738 46.7266C15.7738 47.2847 21.0928 47.7371 27.6525 47.7371C34.2128 47.7371 39.5315 47.2847 39.5315 46.7266C39.5315 46.1685 34.2128 45.7161 27.6525 45.7161C21.0928 45.7161 15.7738 46.1685 15.7738 46.7266Z" fill="#E5E5E5"/>
<path fill-rule="evenodd" clip-rule="evenodd" d="M32.7776 25.7184L32.3385 25.2767L31.5508 26.0687L30.7631 25.2763L30.3233 25.7184L31.1114 26.5107L30.3237 27.3027L30.7631 27.7448L31.5508 26.9524L32.3385 27.7448L32.7776 27.3031L31.9899 26.5104L32.7776 25.7184ZM29.4142 32.3851H25.8533V31.7403H29.4142V32.3851ZM24.2312 25.7184L23.7922 25.2767L23.0045 26.0687L22.2168 25.2763L21.777 25.7184L22.5651 26.5107L21.7774 27.3027L22.2168 27.7448L23.0045 26.9524L23.7922 27.7448L24.2312 27.3031L23.4436 26.5104L24.2312 25.7184ZM36.0562 15.1396V40.5728C36.0562 40.9073 35.9354 41.2097 35.7439 41.4529H26.5943L18.0683 28.3587V19.2218L23.2367 19.7964L23.2011 15.7675V13.8529C23.263 13.8421 23.3257 13.835 23.3894 13.835H35.2151C35.71 14.0596 36.0562 14.5578 36.0562 15.1396ZM18.0684 18.9193C18.0684 18.8466 18.0766 18.7749 18.0905 18.7044L18.1717 18.7115L18.0809 18.7997C18.0759 18.8394 18.0684 18.8788 18.0684 18.9193Z" fill="white"/>
<path fill-rule="evenodd" clip-rule="evenodd" d="M37.3683 31.0133V40.3788C37.3683 40.991 36.8729 41.4893 36.2644 41.4893H35.7181C35.7277 41.4778 35.7345 41.4646 35.7438 41.4531C35.9353 41.2095 36.0557 40.9076 36.0557 40.573V15.1398C36.0557 14.5577 35.7099 14.0594 35.2146 13.8348H36.2644C36.8729 13.8348 37.3683 14.3331 37.3683 14.9457V24.5906C37.3683 24.7686 37.5118 24.913 37.6888 24.913C37.7432 24.913 37.7913 24.8961 37.8362 24.8721V26.7857C37.7913 26.7621 37.7432 26.7449 37.6888 26.7449C37.5118 26.7449 37.3683 26.8892 37.3683 27.0673V28.6738C37.3683 28.8519 37.5118 28.9962 37.6888 28.9962C37.7432 28.9962 37.7913 28.979 37.8362 28.9554V30.7318C37.7913 30.7078 37.7432 30.691 37.6888 30.691C37.5118 30.691 37.3683 30.8353 37.3683 31.0133Z" fill="#C6EDF6"/>
<path fill-rule="evenodd" clip-rule="evenodd" d="M22.5601 18.4525L18.6355 18.1057L22.5601 14.3871V18.4525Z" fill="#0D4F80"/>
<path fill-rule="evenodd" clip-rule="evenodd" d="M23.7919 27.7449L23.0042 26.9526L22.2165 27.7449L21.7774 27.3029L22.5651 26.5109L21.7771 25.7182L22.2165 25.2761L23.0042 26.0689L23.7919 25.2765L24.231 25.7185L23.4433 26.5105L24.231 27.3033L23.7919 27.7449Z" fill="#0F2B4A"/>
<path fill-rule="evenodd" clip-rule="evenodd" d="M32.3383 27.7449L31.5506 26.9526L30.7629 27.7449L30.3238 27.3029L31.1115 26.5109L30.3235 25.7182L30.7629 25.2761L31.5506 26.0689L32.3383 25.2765L32.7773 25.7185L31.9897 26.5105L32.7773 27.3033L32.3383 27.7449Z" fill="#0F2B4A"/>
<path fill-rule="evenodd" clip-rule="evenodd" d="M37.3682 28.674V27.0678C37.3682 26.8897 37.5117 26.7454 37.6888 26.7454C37.7433 26.7454 37.7914 26.7622 37.8363 26.7858C37.9382 26.8399 38.0098 26.9438 38.0098 27.0678V28.674C38.0098 28.7976 37.9382 28.9015 37.8363 28.9555C37.7914 28.9795 37.7433 28.9964 37.6888 28.9964C37.5117 28.9964 37.3682 28.852 37.3682 28.674Z" fill="#0F2B4A"/>
<path fill-rule="evenodd" clip-rule="evenodd" d="M29.4143 32.3853H25.8533V31.7405H29.4143V32.3853Z" fill="#EC0000"/>
<path fill-rule="evenodd" clip-rule="evenodd" d="M19.1657 41.453C18.6383 41.453 18.1971 41.0783 18.0889 40.5797C18.0768 40.5145 18.0686 40.4475 18.0686 40.3788V28.3589L26.5942 41.453H19.1657Z" fill="#F5F5F5"/>
<path fill-rule="evenodd" clip-rule="evenodd" d="M18.0686 19.2218V18.9191C18.0686 18.8787 18.0761 18.8393 18.0811 18.7995L18.1719 18.7117L22.8528 19.1251C22.862 19.1262 22.8713 19.1266 22.8809 19.1266C22.9603 19.1266 23.038 19.0965 23.0971 19.042C23.1637 18.9808 23.2014 18.8944 23.2014 18.8042V15.7676L23.5767 19.7241C23.5888 19.8552 23.477 19.9633 23.3471 19.9458L18.0686 19.2218Z" fill="#6EE3FF"/>
<path fill-rule="evenodd" clip-rule="evenodd" d="M17.9793 17.6382L22.1962 13.6642C22.521 13.3587 22.9447 13.1903 23.3891 13.1903H36.2649C37.2271 13.1903 38.0098 13.9777 38.0098 14.9456V24.5908C38.0098 24.7144 37.9382 24.8183 37.8367 24.8724C37.7918 24.896 37.7434 24.9132 37.6893 24.9132C37.5123 24.9132 37.3684 24.7689 37.3684 24.5908V14.9456C37.3684 14.333 36.8735 13.8351 36.2649 13.8351H35.2148H23.3891C23.3257 13.8351 23.2631 13.8423 23.2011 13.853V15.7677V18.8042C23.2011 18.8945 23.1634 18.9808 23.0968 19.0417C23.0377 19.0965 22.96 19.1266 22.8806 19.1266C22.871 19.1266 22.8618 19.1263 22.8525 19.1252L18.1716 18.7118L18.0904 18.7047C18.0765 18.7749 18.0683 18.8469 18.0683 18.9192V19.2219V28.3589V40.3787C18.0683 40.4475 18.0765 40.5145 18.0886 40.5797C18.183 41.0962 18.632 41.4892 19.1722 41.4892H35.7183H36.2649C36.8735 41.4892 37.3684 40.9909 37.3684 40.3787V31.0132C37.3684 30.8352 37.5123 30.6908 37.6893 30.6908C37.7434 30.6908 37.7918 30.708 37.8367 30.7317C37.9382 30.7858 38.0098 30.8897 38.0098 31.0132V40.3787C38.0098 41.3466 37.2271 42.134 36.2649 42.134H19.1722C18.2097 42.134 17.427 41.3466 17.427 40.3787V18.9192C17.427 18.4356 17.6286 17.9685 17.9793 17.6382Z" fill="#0F2B4A"/>
<path fill-rule="evenodd" clip-rule="evenodd" d="M22.5601 18.4525L18.6355 18.1057L22.5601 14.3871V18.4525Z" fill="#0D4F80"/>
</svg>
