<svg width="43" height="35" viewBox="0 0 43 35" fill="none" xmlns="http://www.w3.org/2000/svg">
<path fill-rule="evenodd" clip-rule="evenodd" d="M22.6557 34.2873C8.33197 35.7178 0.949825 32.241 0.509296 23.8568C-0.151501 11.2804 10.9809 12.639 14.2228 9.3243C17.4654 6.00997 13.8332 10.7203 20.0772 3.85185C24.2402 -0.727005 29.7869 -0.750521 36.7177 3.78165C42.3085 8.27143 42.9133 14.1593 38.5322 21.4454C34.1511 28.7318 28.8589 33.0124 22.6557 34.2873Z" fill="#E5E5E5"/>
<path fill-rule="evenodd" clip-rule="evenodd" d="M33.0485 21.7391C33.0493 22.3199 33.0496 22.7948 33.0503 23.2844C33.0518 24.6084 33.0529 25.8779 33.054 27.1524L20.5981 27.1528C20.3222 27.1546 20.0998 27.379 20.1016 27.6534V28.3165C20.1056 29.8072 19.0981 31.1124 17.6502 31.4925C17.3227 31.5766 16.9789 31.5766 16.6514 31.4925C16.3181 31.406 16.0094 31.2684 15.7295 31.0928C14.8503 30.4985 14.2917 29.4994 14.2895 28.3952V9.75413V6.55738C14.288 5.57719 13.8262 4.69962 13.1022 4.13452H14.4574H23.1131L33.0475 21.0358C33.0478 21.2228 33.0482 21.4487 33.0485 21.7391Z" fill="white"/>
<path fill-rule="evenodd" clip-rule="evenodd" d="M33.0452 18.6687V19.0895C33.0456 19.3917 33.0459 19.7822 33.0467 20.3188V20.4452C33.047 20.5974 33.047 20.7784 33.0474 21.0356L23.113 4.1344H29.1891C29.9756 4.13582 30.7061 4.36813 31.3221 4.76327C32.3606 5.47125 33.0431 6.65881 33.0452 8.00635V13.4556C33.0452 13.5907 33.1301 13.7047 33.2496 13.7521C33.2619 13.7628 33.2763 13.7703 33.29 13.7788V15.0594C33.1254 15.075 32.9947 15.2076 32.9947 15.374V16.0289C32.9947 16.1956 33.1254 16.3282 33.29 16.3435V18.3641C33.1503 18.4001 33.0452 18.5198 33.0452 18.6687Z" fill="#E9F4F7"/>
<path fill-rule="evenodd" clip-rule="evenodd" d="M10.5758 4.59499L10.9907 4.50877C11.0691 4.49986 11.1493 4.49523 11.2301 4.49523C11.294 4.49166 11.3572 4.49166 11.4212 4.49523C11.7956 4.52836 12.1365 4.65877 12.4293 4.85224C12.9417 5.23028 13.2725 5.82495 13.2815 6.49195V8.98251H9.08417V6.58387C9.08598 5.65321 9.71139 4.86507 10.5758 4.59499Z" fill="#0D4F80"/>
<path fill-rule="evenodd" clip-rule="evenodd" d="M32.9948 16.0286V15.3742C32.9948 15.2075 33.1252 15.075 33.2898 15.0593C33.3003 15.0586 33.309 15.0536 33.3194 15.0536C33.4989 15.0536 33.6448 15.1972 33.6448 15.3742V16.0286C33.6448 16.2057 33.4989 16.3493 33.3194 16.3493C33.309 16.3493 33.3003 16.3443 33.2898 16.3432C33.1252 16.3279 32.9948 16.1954 32.9948 16.0286Z" fill="#0F2B4A"/>
<path fill-rule="evenodd" clip-rule="evenodd" d="M18.108 13.2593H29.1801C29.3596 13.2593 29.5051 13.4028 29.5051 13.5799C29.5051 13.757 29.3596 13.9006 29.1801 13.9006H18.108C17.9285 13.9006 17.7834 13.757 17.7834 13.5799C17.7834 13.4028 17.9285 13.2593 18.108 13.2593ZM16.8287 8.66284H29.1801C29.3596 8.66284 29.5051 8.80643 29.5051 8.98351C29.5051 9.1606 29.3596 9.30419 29.1801 9.30419H16.8287C16.6492 9.30419 16.504 9.1606 16.504 8.98351C16.504 8.80643 16.6492 8.66284 16.8287 8.66284Z" fill="#0D4F80"/>
<path fill-rule="evenodd" clip-rule="evenodd" d="M24.2958 17.8556H29.1803C29.3597 17.8556 29.5056 17.9992 29.5056 18.1763C29.5056 18.3533 29.3597 18.4969 29.1803 18.4969H24.2958C24.1163 18.4969 23.9708 18.3533 23.9708 18.1763C23.9708 17.9992 24.1163 17.8556 24.2958 17.8556ZM24.2958 22.4519H29.1803C29.3597 22.4519 29.5056 22.5955 29.5056 22.7725C29.5056 22.9496 29.3597 23.0932 29.1803 23.0932H24.2958C24.1163 23.0932 23.9708 22.9496 23.9708 22.7725C23.9708 22.5955 24.1163 22.4519 24.2958 22.4519Z" fill="#A6CED7"/>
<path fill-rule="evenodd" clip-rule="evenodd" d="M40.2576 26.7523L40.6863 27.1752L41.3875 26.483L42.0902 27.1762L42.5188 26.753L41.8161 26.0601L42.5177 25.3679L42.0891 24.9454L41.3879 25.6376L40.6855 24.9443L40.2566 25.3672L40.9592 26.0605L40.2576 26.7523Z" fill="#0F2B4A"/>
<path fill-rule="evenodd" clip-rule="evenodd" d="M3.60153 10.6281C4.22369 10.6281 4.72705 10.129 4.72705 9.5134C4.72705 8.89815 4.22369 8.39905 3.60153 8.39905C2.97937 8.39905 2.47601 8.89815 2.47601 9.5134C2.47601 10.129 2.97937 10.6281 3.60153 10.6281ZM3.60153 9.99291C3.3354 9.99291 3.11911 9.77845 3.11911 9.5134C3.11911 9.24835 3.3354 9.03424 3.60153 9.03424C3.86765 9.03424 4.08395 9.24835 4.08395 9.5134C4.08395 9.77845 3.86765 9.99291 3.60153 9.99291Z" fill="#6EE3FF"/>
<path fill-rule="evenodd" clip-rule="evenodd" d="M11.1722 3.48413H11.4918L29.1899 3.49339C30.1114 3.49482 30.9672 3.76775 31.6865 4.23237C32.9485 5.04759 33.7855 6.45784 33.788 8.06476V13.5144C33.788 13.6915 33.6425 13.8351 33.4627 13.8351C33.3981 13.8351 33.341 13.8116 33.2901 13.7792C33.2764 13.7702 33.2623 13.7628 33.25 13.7521C33.1825 13.6933 33.1381 13.6099 33.1381 13.5144V8.06512C33.1359 6.67874 32.4116 5.46304 31.3222 4.76326C30.7065 4.36812 29.9756 4.13581 29.1892 4.13474H23.1131L14.4574 4.13438H13.1026C13.8262 4.69948 14.288 5.57741 14.2895 6.55725V9.75435V28.3954C14.2917 29.4992 14.8503 30.4983 15.7295 31.0926C16.0328 31.2979 16.3737 31.4554 16.7442 31.5512C17.0717 31.6356 17.4155 31.6356 17.743 31.5512C19.1909 31.1714 20.1984 29.8659 20.1944 28.3755V27.7124C20.1922 27.438 20.415 27.2136 20.6905 27.2118L33.1464 27.2114C33.1457 25.9366 33.1446 24.6674 33.1431 23.343C33.1424 22.8535 33.1421 22.3789 33.1413 21.7978C33.1402 21.108 33.1399 20.7666 33.1395 20.5044V20.3779C33.1388 19.8409 33.1384 19.4508 33.1381 19.1483V18.7275C33.1381 18.5504 33.2832 18.4068 33.4627 18.4068C33.5057 18.4068 33.5461 18.4161 33.5833 18.431C33.7028 18.4784 33.788 18.5925 33.788 18.7275C33.788 19.0898 33.7884 19.5997 33.7895 20.5033L33.7899 20.5478C33.7899 20.8047 33.7906 21.1454 33.7913 21.797C33.792 22.3782 33.7927 22.8528 33.7931 23.3423C33.7942 24.6464 33.7953 25.8974 33.7964 27.1526V27.2114L36.8931 27.2118C36.9718 27.2118 37.0447 27.231 37.1108 27.2634C37.2773 27.344 37.3928 27.5125 37.3928 27.7088V28.4118C37.395 30.7591 35.4845 32.6636 33.1265 32.6654H17.5534C17.4433 32.6654 17.2732 32.6654 17.1638 32.649C16.9695 32.6312 16.7767 32.5991 16.5875 32.5524C16.0852 32.4363 15.6226 32.2332 15.2106 31.9638C14.0349 31.1949 13.282 29.8759 13.2802 28.4118V9.75435V8.9826H9.084H8.58641H8.58425C8.46653 8.9826 8.35965 8.90528 8.27407 8.83723C8.15924 8.74602 8.08447 8.60741 8.08447 8.45028V6.58397C8.07764 4.87941 9.45953 3.49161 11.1722 3.48413Z" fill="#0F2B4A"/>
<path fill-rule="evenodd" clip-rule="evenodd" d="M10.5758 4.59499L10.9907 4.50877C11.0691 4.49986 11.1493 4.49523 11.2301 4.49523C11.294 4.49166 11.3572 4.49166 11.4212 4.49523C11.7956 4.52836 12.1365 4.65877 12.4293 4.85224C12.9417 5.23028 13.2725 5.82495 13.2815 6.49195V8.98251H9.08417V6.58387C9.08598 5.65321 9.71139 4.86507 10.5758 4.59499Z" fill="#0D4F80"/>
<path fill-rule="evenodd" clip-rule="evenodd" d="M11.9488 20.4611L13.5347 18.8966L15.1083 20.449L15.7276 19.838L14.1539 18.2855L15.7399 16.7207L15.1238 16.1128L13.5379 17.6777L11.9647 16.1249L11.345 16.736L12.919 18.2888L11.3331 19.8536L11.9488 20.4611ZM13.4603 12.0923C16.8777 12.0923 19.6479 14.8201 19.6479 18.1851C19.6479 21.55 16.8777 24.2779 13.4603 24.2779C12.1773 24.2779 10.9861 23.8934 9.99779 23.2357C9.51429 22.9136 9.08062 22.5248 8.70725 22.0848C7.81211 21.028 7.27228 19.6691 7.27228 18.1851C7.27228 14.8201 10.0426 12.0923 13.4603 12.0923Z" fill="white"/>
<path fill-rule="evenodd" clip-rule="evenodd" d="M9.99773 23.2357C10.986 23.8937 12.1773 24.2778 13.4602 24.2778C16.878 24.2778 19.6482 21.55 19.6482 18.1851C19.6482 14.8205 16.878 12.0923 13.4602 12.0923C10.0425 12.0923 7.27221 14.8205 7.27221 18.1851C7.27221 19.6691 7.81204 21.0284 8.70755 22.0852C9.08055 22.5252 9.51423 22.9136 9.99773 23.2357ZM4.45931 26.2703L8.24752 22.538C7.23574 21.364 6.62189 19.8461 6.62189 18.1851C6.62189 14.466 9.68394 11.4509 13.4602 11.4509C15.8052 11.4509 17.8731 12.6146 19.1048 14.3865C19.1601 14.4663 19.2095 14.5504 19.2612 14.6327C19.3182 14.7232 19.3771 14.8126 19.4298 14.906C19.4778 14.9901 19.5208 15.0777 19.5652 15.1643C19.6147 15.2612 19.6641 15.3585 19.7093 15.4583C19.7479 15.5449 19.784 15.6329 19.819 15.7212C19.8613 15.827 19.9014 15.9336 19.9382 16.0419C19.9678 16.1288 19.996 16.2161 20.0223 16.3045C20.0566 16.4214 20.0866 16.54 20.1151 16.6594C20.1346 16.7427 20.1552 16.8261 20.1718 16.9109C20.1982 17.047 20.218 17.1856 20.2361 17.3242C20.2451 17.3958 20.2578 17.4664 20.265 17.5387C20.2852 17.7518 20.2979 17.967 20.2979 18.1851C20.2979 18.4085 20.2856 18.629 20.2643 18.8467C20.2567 18.9219 20.2422 18.9946 20.2325 19.0687C20.2137 19.2098 20.1946 19.3509 20.1671 19.4891C20.1494 19.5778 20.1256 19.6644 20.1043 19.7517C20.0754 19.8714 20.0465 19.9912 20.0111 20.108C19.9826 20.2024 19.949 20.2947 19.9165 20.3874C19.8793 20.4925 19.8422 20.5976 19.7999 20.7006C19.7598 20.7978 19.7161 20.8933 19.6717 20.9885C19.6287 21.0807 19.5847 21.1723 19.5374 21.2624C19.485 21.3619 19.4301 21.4598 19.3735 21.556C19.3265 21.6351 19.2785 21.7135 19.2287 21.7905C19.1633 21.892 19.0954 21.9918 19.0246 22.0891C18.9777 22.1539 18.9286 22.2173 18.8795 22.2804C18.7986 22.3837 18.7163 22.4863 18.6293 22.585C18.5866 22.6335 18.5419 22.6798 18.4978 22.7272C18.3982 22.8345 18.297 22.9399 18.1905 23.0404C18.1602 23.0689 18.1284 23.0956 18.0977 23.1241C17.087 24.0423 15.7968 24.6669 14.3644 24.8536C14.0676 24.8925 13.7672 24.9192 13.4602 24.9192C11.9982 24.9192 10.6466 24.4638 9.53517 23.6942L5.69099 27.4814C5.35085 27.8163 4.80018 27.8163 4.45967 27.4817C4.45931 27.4814 4.45859 27.4806 4.45823 27.4803C4.11989 27.1457 4.12061 26.6041 4.45931 26.2703Z" fill="#EC0000"/>
<path fill-rule="evenodd" clip-rule="evenodd" d="M11.3454 16.7361L11.965 16.125L13.5383 17.6778L15.1242 16.1129L15.7402 16.7208L14.1543 18.2853L15.728 19.8381L15.1087 20.4491L13.5347 18.8964L11.9491 20.4612L11.3335 19.8537L12.919 18.2889L11.3454 16.7361Z" fill="#EC0000"/>
<path fill-rule="evenodd" clip-rule="evenodd" d="M18.1906 23.0404C18.2971 22.94 18.3979 22.8341 18.4979 22.7272C18.542 22.6802 18.5867 22.6335 18.6293 22.5851C18.716 22.4864 18.7987 22.3838 18.8792 22.2804C18.9287 22.2174 18.9774 22.1539 19.0247 22.0891C19.0955 21.9918 19.163 21.8917 19.2287 21.7905C19.2786 21.7132 19.3266 21.6352 19.3732 21.5561C19.4302 21.4595 19.4851 21.3619 19.5371 21.2625C19.5844 21.1723 19.6281 21.0808 19.6718 20.9885C19.7162 20.8933 19.7599 20.7979 19.8 20.7006C19.8419 20.5976 19.8791 20.4925 19.9163 20.3874C19.9488 20.2948 19.9827 20.2025 20.0112 20.1081C20.047 19.9908 20.0755 19.8711 20.1044 19.7517C20.1253 19.6641 20.1495 19.5779 20.1672 19.4892C20.195 19.3509 20.2138 19.2098 20.2322 19.0687C20.2423 18.9946 20.2568 18.9216 20.264 18.8467C20.2857 18.629 20.2979 18.4085 20.2979 18.1851C20.2979 17.967 20.2853 17.7518 20.2647 17.5388C20.2579 17.4664 20.2449 17.3959 20.2358 17.3243C20.2178 17.1853 20.1986 17.0471 20.1716 16.9109C20.1549 16.8261 20.1347 16.7428 20.1149 16.6594C20.0867 16.54 20.0567 16.4214 20.0221 16.3045C19.9961 16.2162 19.9679 16.1289 19.9383 16.0419C19.9011 15.9336 19.8614 15.8271 19.8191 15.7212C19.7837 15.6329 19.7476 15.5449 19.709 15.4583C19.6639 15.3585 19.6148 15.2613 19.5653 15.1643C19.5209 15.0778 19.4775 14.9901 19.4299 14.9057C19.3768 14.8127 19.3187 14.7232 19.2612 14.6327C19.2092 14.5504 19.1601 14.4663 19.1045 14.3865C18.9958 14.2301 18.8807 14.0783 18.7593 13.9323C20.06 15.2206 20.8638 16.9972 20.8638 18.959C20.8638 22.6542 18.0137 25.6917 14.3641 26.0491V24.8537C15.7966 24.6666 17.0868 24.0424 18.0974 23.1238C18.1281 23.0957 18.1603 23.0689 18.1906 23.0404Z" fill="#C6ECF6"/>
</svg>
