<svg width="49" height="37" viewBox="0 0 49 37" fill="none" xmlns="http://www.w3.org/2000/svg">
<path fill-rule="evenodd" clip-rule="evenodd" d="M22.657 34.2258C9.61097 32.5003 7.065 29.5058 5.05287 26.2675C1.15577 19.9959 4.21783 9.40022 11.9644 9.34463C19.5494 10.8029 18.1465 -2.88391 32.7489 1.04177C41.8984 3.50137 44.9811 11.151 43.7845 18.0413C42.5879 24.9319 36.1285 36.0076 22.657 34.2258Z" fill="#E5E5E5"/>
<path fill-rule="evenodd" clip-rule="evenodd" d="M7.99967 5.28564C11.7167 5.28564 14.7297 8.30723 14.7297 12.0341C14.7297 15.7609 11.7167 18.7821 7.99967 18.7821C4.28442 18.7778 1.27352 15.7588 1.26961 12.0341C1.26961 8.30723 4.28265 5.28564 7.99967 5.28564Z" fill="white"/>
<path fill-rule="evenodd" clip-rule="evenodd" d="M9.68912 11.3893C9.55024 12.5072 8.68856 13.3966 7.57824 13.5677C7.71677 13.5934 7.85813 13.6062 7.99914 13.6058C6.93571 13.6347 6.02324 12.8511 5.88827 11.7927L5.61371 9.57787C5.52456 9.0248 5.68617 8.46068 6.05414 8.03875C6.54643 7.48104 7.25396 7.16174 7.99665 7.16174C7.99808 7.16174 7.99949 7.1621 8.00091 7.1621L9.82373 10.3209L9.68912 11.3893Z" fill="#FEDAC6"/>
<path fill-rule="evenodd" clip-rule="evenodd" d="M10.1082 11.7864C9.97859 12.8476 9.0647 13.6356 7.99949 13.6056H7.99914C7.85777 13.606 7.71676 13.5935 7.57789 13.5678C8.6882 13.3968 9.55023 12.507 9.68876 11.3894L9.82337 10.321L10.2059 10.9846L10.3828 9.57161C10.4371 9.23021 10.3956 8.8849 10.2695 8.57166C10.3974 8.88561 10.4407 9.23092 10.386 9.57161L10.1082 11.7864Z" fill="#F6C7B4"/>
<path fill-rule="evenodd" clip-rule="evenodd" d="M10.3829 9.57155L10.206 10.9842L9.82345 10.321L8.00063 7.16183L7.99708 7.15613C8.73977 7.1572 9.44624 7.47614 9.93959 8.03242C10.006 8.10868 10.0639 8.191 10.1168 8.27582C10.1339 8.3029 10.1516 8.32963 10.1673 8.35742C10.1765 8.37453 10.185 8.39199 10.1943 8.40945C10.2177 8.45578 10.2411 8.50246 10.2607 8.55021C10.2639 8.55698 10.2664 8.56411 10.2696 8.57124C10.3953 8.88484 10.4369 9.23015 10.3829 9.57155Z" fill="#FEE5D7"/>
<path fill-rule="evenodd" clip-rule="evenodd" d="M10.2749 18.4738C10.406 18.4282 10.536 18.3797 10.6638 18.3263C10.5356 18.3797 10.4056 18.4282 10.2749 18.4738Z" fill="#EC0000"/>
<path fill-rule="evenodd" clip-rule="evenodd" d="M2.67889 16.3057C3.04473 15.2854 4.08436 14.6507 5.39429 14.6507C6.13698 14.6507 7.00648 14.9469 7.60284 15.1967C7.66464 15.222 7.72893 15.2405 7.79357 15.2537C7.79854 15.2547 7.80387 15.2555 7.80884 15.2562C7.86248 15.2665 7.91718 15.2708 7.97152 15.2729C8.00526 15.2743 8.03901 15.2722 8.0731 15.2701C8.09193 15.269 8.11146 15.2676 8.13064 15.2654C8.22228 15.2544 8.31392 15.2323 8.40129 15.1967C9.00831 14.9469 9.8842 14.6493 10.6098 14.6493C11.8281 14.6493 12.9086 15.3057 13.3032 16.285L13.3331 16.3498C13.3331 16.3502 13.3327 16.3502 13.3323 16.3502L13.3032 16.2864C12.9086 15.3075 11.8281 14.6507 10.6098 14.6507C9.93321 14.6507 9.12836 14.9101 8.52916 15.1475C8.54586 15.1418 8.5629 15.1382 8.5796 15.1325C9.17276 14.9005 9.95275 14.6557 10.6116 14.6557C11.8295 14.6557 12.9104 15.3121 13.3046 16.2914L13.3345 16.3563C13.1757 16.5473 13.0041 16.7258 12.8269 16.8979C12.8173 16.9072 12.8081 16.9168 12.7978 16.9261C12.7193 17.0016 12.6394 17.075 12.5573 17.1463C12.5286 17.1713 12.4994 17.1959 12.4707 17.2201C12.3971 17.2821 12.324 17.3437 12.248 17.4022C12.1982 17.441 12.1464 17.4777 12.0956 17.5155C12.0079 17.5793 11.9194 17.642 11.8288 17.7022C11.7436 17.7589 11.6576 17.8149 11.5696 17.8676C11.5273 17.8932 11.4843 17.9168 11.4417 17.9414C11.3525 17.9923 11.2623 18.0422 11.1707 18.0892C11.133 18.1088 11.095 18.1277 11.0574 18.1466C10.9458 18.2011 10.8329 18.2535 10.7185 18.3024C10.7001 18.3102 10.6819 18.3187 10.6635 18.3262C10.536 18.3797 10.406 18.4281 10.2749 18.4738C10.2603 18.4791 10.2461 18.4852 10.2316 18.4902L10.2305 18.4887C9.51978 18.7318 8.76714 18.8622 7.99923 18.8622C5.93666 18.8622 3.98136 17.9414 2.66469 16.3498L2.67889 16.3057Z" fill="#0F2B4A"/>
<path fill-rule="evenodd" clip-rule="evenodd" d="M7.71177 15.4436C7.45568 15.548 7.1694 15.548 6.91331 15.4436C6.31518 15.1952 7.00673 14.9483 7.60415 15.1984C7.6656 15.2234 7.72917 15.2405 7.79311 15.2537C7.79843 15.2547 7.80376 15.2555 7.80838 15.2565C7.86237 15.2665 7.91707 15.2708 7.97141 15.2729C8.00515 15.2743 8.0389 15.2722 8.07299 15.2704C8.09217 15.2694 8.11135 15.2676 8.13053 15.2654C8.1522 15.2629 8.17422 15.264 8.19589 15.2601C8.02256 15.3185 7.85988 15.3802 7.71177 15.4436ZM13.3347 16.3564C13.1756 16.5475 13.004 16.726 12.8268 16.8981C12.8172 16.9074 12.8076 16.917 12.7977 16.9263C12.7195 17.0018 12.6389 17.0752 12.5572 17.1465C12.5284 17.1714 12.4993 17.1957 12.4705 17.2203C12.3974 17.2823 12.3239 17.3439 12.2482 17.4024C12.1981 17.4412 12.1463 17.4779 12.0955 17.5153C12.0077 17.5795 11.9193 17.6422 11.8287 17.7024C11.7435 17.7591 11.6572 17.815 11.5694 17.8678C11.5272 17.8931 11.4842 17.9169 11.4416 17.9415C11.3521 17.9925 11.2619 18.0424 11.1702 18.0894C11.1329 18.1087 11.0949 18.1279 11.0573 18.1464C10.9457 18.2013 10.8328 18.2537 10.7184 18.3025C10.6999 18.3104 10.6818 18.3189 10.6634 18.3264C10.5359 18.3799 10.4059 18.4283 10.2748 18.4739C10.2602 18.4793 10.246 18.4853 10.2315 18.4903L10.2304 18.4889L8.34755 15.2221L8.40261 15.2033C8.45873 15.1801 8.51911 15.1562 8.57949 15.1327C9.17265 14.9007 9.95299 14.6559 10.6115 14.6559C11.8294 14.6559 12.9103 15.3123 13.3045 16.2916" fill="#0D4F80"/>
<path fill-rule="evenodd" clip-rule="evenodd" d="M7.94498 19.0311C11.8488 19.0311 15.0132 15.858 15.0132 11.9434C15.0132 8.02912 11.8488 4.85608 7.94534 4.85608C4.04184 4.85608 0.877137 8.02912 0.877137 11.9438C0.881399 15.8562 4.04326 19.0264 7.94498 19.0311ZM1.51612 11.9434C1.51612 8.3837 4.39454 5.49753 7.94534 5.49753C11.4958 5.49753 14.3742 8.3837 14.3742 11.9434C14.3742 15.5034 11.4958 18.3896 7.94534 18.3896C4.39632 18.3853 1.52038 15.5017 1.51612 11.9434Z" fill="#0F2B4A"/>
<mask id="mask0_3509_5615" style="mask-type:alpha" maskUnits="userSpaceOnUse" x="0" y="24" width="7" height="8">
<path d="M6.87817 24.8528H0.27491V31.474H6.87817V24.8528Z" fill="white"/>
</mask>
<g mask="url(#mask0_3509_5615)">
<path fill-rule="evenodd" clip-rule="evenodd" d="M3.57672 24.8528C5.39705 24.8528 6.87817 26.3377 6.87817 28.1634C6.87817 29.9887 5.39705 31.474 3.57672 31.474C1.75817 31.4718 0.277041 29.9869 0.27491 28.1634C0.27491 26.3377 1.75604 24.8528 3.57672 24.8528Z" fill="#E9F4F7"/>
</g>
<path fill-rule="evenodd" clip-rule="evenodd" d="M4.38287 27.8556C4.3168 28.3894 3.90514 28.8139 3.3752 28.8955C3.44162 28.9079 3.50875 28.914 3.57624 28.9136C3.06868 28.9275 2.63286 28.5534 2.56893 28.0484L2.43751 26.9911C2.39489 26.727 2.47196 26.4576 2.64778 26.2562C2.88256 25.99 3.2207 25.8375 3.57553 25.8375H3.57695L4.44751 27.3456L4.38287 27.8556Z" fill="#FEDAC6"/>
<path fill-rule="evenodd" clip-rule="evenodd" d="M4.58304 28.0452C4.52088 28.5516 4.08507 28.9279 3.57609 28.9137C3.5086 28.914 3.44111 28.9076 3.37505 28.8955C3.90499 28.8139 4.31665 28.3891 4.38271 27.8556L4.447 27.3457L4.62992 27.6621L4.7141 26.9879C4.73967 26.8247 4.72014 26.66 4.66011 26.5104C4.7212 26.6604 4.74145 26.8254 4.71552 26.9879L4.58304 28.0452Z" fill="#F6C7B4"/>
<path fill-rule="evenodd" clip-rule="evenodd" d="M4.71436 26.9879L4.63018 27.6625L4.44726 27.3457L3.57706 25.8376L3.57564 25.8347C3.92976 25.8354 4.26718 25.9876 4.50267 26.2531C4.53464 26.2898 4.56199 26.329 4.58756 26.3693C4.59538 26.3824 4.6039 26.3949 4.61136 26.4085C4.61597 26.4163 4.61988 26.4249 4.62414 26.433C4.63551 26.4551 4.64688 26.4776 4.65611 26.5004C4.65753 26.5036 4.65895 26.5072 4.66037 26.5104C4.7204 26.66 4.73993 26.8247 4.71436 26.9879Z" fill="#FEE5D7"/>
<path fill-rule="evenodd" clip-rule="evenodd" d="M1.03667 30.2027C1.21107 29.7155 1.70797 29.413 2.33275 29.413C2.68722 29.413 3.10244 29.5541 3.38729 29.6735C3.41642 29.6852 3.44661 29.6941 3.47716 29.7002C3.47751 29.7002 3.47787 29.7005 3.47822 29.7005C3.48071 29.7009 3.4832 29.7013 3.48568 29.7016C3.51125 29.7066 3.53718 29.7087 3.56311 29.7098C3.57945 29.7105 3.59543 29.7095 3.61142 29.7084C3.62065 29.708 3.63024 29.7073 3.63912 29.7062C3.68281 29.7009 3.7265 29.6906 3.76805 29.6735C3.78723 29.6656 3.81068 29.6574 3.83021 29.6496C3.83803 29.6471 3.84584 29.6453 3.85365 29.6428C4.13674 29.532 4.50897 29.4151 4.82331 29.4151C5.40511 29.4151 5.92084 29.7283 6.10909 30.1959L6.12258 30.2248L6.12329 30.2269C6.04764 30.3181 5.96594 30.4033 5.88141 30.4853C5.87644 30.4899 5.87182 30.4945 5.86756 30.4992C5.82991 30.5351 5.79155 30.5701 5.75212 30.6039C5.73863 30.616 5.72477 30.6274 5.71092 30.6392C5.67611 30.6688 5.6413 30.6984 5.60472 30.7262C5.58092 30.7447 5.55642 30.7621 5.53191 30.7803C5.49 30.811 5.44773 30.8409 5.40475 30.8694C5.36391 30.8965 5.3227 30.9232 5.28079 30.9485C5.2609 30.9603 5.2403 30.972 5.2197 30.9834C5.17708 31.008 5.1341 31.0319 5.09041 31.0544C5.0723 31.0636 5.05454 31.0725 5.03642 31.0814C4.98279 31.1078 4.92916 31.1324 4.87481 31.1559C4.86558 31.1598 4.85741 31.1638 4.84817 31.1673C4.78744 31.1926 4.72563 31.2158 4.66277 31.2379C4.65566 31.2404 4.64927 31.2432 4.64181 31.2457L4.64146 31.245C4.30225 31.3608 3.94316 31.4232 3.5759 31.4232C2.59168 31.4232 1.65825 30.9834 1.02957 30.224L1.03667 30.2027Z" fill="#083F6B"/>
<path fill-rule="evenodd" clip-rule="evenodd" d="M3.38807 29.674C3.4172 29.6861 3.44774 29.6943 3.47829 29.7003C3.48077 29.701 3.48326 29.7014 3.48539 29.7018C3.51132 29.7067 3.53725 29.7085 3.56318 29.7096C3.57952 29.7103 3.5955 29.7092 3.61148 29.7085C3.62072 29.7078 3.63031 29.7071 3.63919 29.706C3.64949 29.705 3.66014 29.7053 3.67044 29.7035C3.58768 29.7313 3.51026 29.7609 3.43957 29.7912C3.31703 29.8407 3.18029 29.8407 3.0581 29.7912C2.77289 29.6725 3.1025 29.5549 3.38807 29.674ZM3.85354 29.6426C4.13663 29.5318 4.50922 29.4149 4.8232 29.4149C5.405 29.4149 5.92072 29.7285 6.10933 30.1957L6.12283 30.2246L6.12354 30.2267C6.04788 30.3179 5.96583 30.4031 5.8813 30.4854C5.87633 30.4897 5.87206 30.4943 5.86745 30.499C5.8298 30.535 5.79144 30.5699 5.75237 30.6041C5.73887 30.6159 5.72502 30.6276 5.71081 30.639C5.676 30.6686 5.64119 30.6982 5.60496 30.7263C5.58081 30.7449 5.5563 30.7623 5.53215 30.7801C5.48988 30.8108 5.44762 30.8407 5.40464 30.8692C5.36379 30.8963 5.32295 30.923 5.28103 30.9483C5.26079 30.9605 5.24019 30.9719 5.21994 30.9836C5.17732 31.0079 5.13399 31.0317 5.0903 31.0542C5.07254 31.0634 5.05443 31.0727 5.03631 31.0816C4.98303 31.1076 4.92904 31.1326 4.8747 31.1557C4.86582 31.1597 4.8573 31.1636 4.84842 31.1671C4.78733 31.1928 4.72552 31.216 4.66266 31.2377C4.65591 31.2402 4.64916 31.2431 4.64206 31.2455L4.6417 31.2448L3.74272 29.6854L3.76901 29.6761C3.796 29.6651 3.82477 29.654 3.85354 29.6426Z" fill="#0D4F80"/>
<path fill-rule="evenodd" clip-rule="evenodd" d="M30.4764 23.9765V6.19587C30.4764 5.07511 29.5714 4.16675 28.455 4.16675H21.189H17.4666C16.3514 4.16675 15.4471 5.07297 15.4453 6.1923V32.0638C15.4527 32.5912 15.6708 33.0933 16.0516 33.4575C16.4316 33.8214 16.9417 34.017 17.4666 34.0003H28.455C28.98 34.017 29.49 33.8214 29.8701 33.4575C30.2501 33.0933 30.4689 32.5912 30.4764 32.0638V23.9765ZM31.6272 15.2931V32.1222C31.6276 32.9422 31.2962 33.7273 30.7076 34.2989C30.1194 34.8701 29.3249 35.1791 28.4955 35.1542L17.4162 35.1545C16.5968 35.1791 15.8022 34.8701 15.2137 34.2989C14.6255 33.7273 14.2938 32.9422 14.2941 32.1222L14.3016 6.14491C14.3037 4.41834 15.7003 3.01748 17.4261 3.01178H26.1772C26.3427 3.01178 26.4742 2.8842 26.4905 2.72241H28.1822C28.1986 2.8842 28.3296 3.01178 28.4952 3.01178C30.2242 3.01392 31.6254 4.41549 31.6272 6.14455V11.7341C31.6272 11.9112 31.7707 12.0544 31.9472 12.0544C31.9533 12.0544 31.9589 12.0512 31.9653 12.0509V12.7704C31.9589 12.77 31.9533 12.7668 31.9472 12.7668C31.7707 12.7668 31.6272 12.9104 31.6272 13.0875V13.9599C31.6272 14.137 31.7707 14.2806 31.9472 14.2806C31.9533 14.2806 31.9589 14.2771 31.9653 14.2767V14.9759C31.9589 14.9755 31.9533 14.9723 31.9472 14.9723C31.7707 14.9723 31.6272 15.1159 31.6272 15.2931Z" fill="white"/>
<path fill-rule="evenodd" clip-rule="evenodd" d="M28.455 34.0003H17.4666C16.9416 34.017 16.4316 33.8217 16.0515 33.4575C15.6711 33.0933 15.453 32.5912 15.4452 32.0638V6.19231C15.447 5.07298 16.3516 4.16675 17.4666 4.16675H21.1889C25.7293 14.0048 28.824 20.6057 30.4763 23.9765V32.0638C30.4689 32.5912 30.2504 33.0933 29.87 33.4575C29.49 33.8217 28.9803 34.017 28.455 34.0003Z" fill="#E9F4F7"/>
<path fill-rule="evenodd" clip-rule="evenodd" d="M28.455 4.16663C29.5717 4.16663 30.4763 5.07499 30.4763 6.19575V23.9764C28.824 20.6056 25.7293 14.0047 21.1889 4.16663H28.455Z" fill="#F9F9F9"/>
<path fill-rule="evenodd" clip-rule="evenodd" d="M13.6625 6.14449C13.665 4.06406 15.3468 2.37704 17.4254 2.37063H26.1775C26.354 2.37063 26.4972 2.51388 26.4972 2.69135C26.4972 2.7024 26.4918 2.71166 26.4908 2.72235C26.4744 2.88414 26.343 3.01172 26.1775 3.01172H17.4264C15.7006 3.01742 14.304 4.41828 14.3019 6.14485L14.2944 32.1222C14.294 32.9422 14.6258 33.7272 15.214 34.2988C15.8022 34.8701 16.5971 35.179 17.4165 35.1545L28.4958 35.1541C29.3252 35.179 30.1197 34.8701 30.7079 34.2988C31.2961 33.7272 31.6278 32.9422 31.6275 32.1222V15.293C31.6275 15.1159 31.7706 14.9723 31.9471 14.9723C31.9535 14.9723 31.9592 14.9755 31.9656 14.9758C32.1333 14.9862 32.2668 15.1223 32.2668 15.293V32.1218C32.2672 33.1157 31.8654 34.0672 31.1526 34.7596C30.4404 35.4517 29.4782 35.8255 28.4859 35.7955H17.4264C16.4436 35.8255 15.4814 35.4517 14.7689 34.7596C14.0564 34.0672 13.6547 33.1157 13.6551 32.1218L13.6625 6.14449ZM31.6275 11.7339V6.14471C31.6257 4.41564 30.2245 3.01372 28.4955 3.01193C28.33 3.01158 28.1989 2.884 28.1826 2.72257C28.1811 2.71152 28.1758 2.7019 28.1758 2.69085C28.1762 2.51374 28.3197 2.37048 28.4962 2.37048C30.5776 2.37262 32.2647 4.06071 32.2668 6.14435V11.7339C32.2668 11.9046 32.1333 12.0407 31.9656 12.051C31.9593 12.0514 31.9536 12.0546 31.9472 12.0546C31.7707 12.0546 31.6275 11.911 31.6275 11.7339Z" fill="#0F2B4A"/>
<path fill-rule="evenodd" clip-rule="evenodd" d="M31.6275 13.9598V13.0874C31.6275 12.9103 31.7707 12.7667 31.9472 12.7667C31.9536 12.7667 31.9593 12.7703 31.9656 12.7706C32.1333 12.7806 32.2668 12.9171 32.2668 13.0874V13.9598C32.2668 14.1305 32.1333 14.2666 31.9656 14.277C31.9593 14.2773 31.9536 14.2805 31.9472 14.2805C31.7707 14.2805 31.6275 14.1369 31.6275 13.9598Z" fill="#0F2B4A"/>
<path fill-rule="evenodd" clip-rule="evenodd" d="M23.7783 6.36287H20.9368C20.7603 6.36287 20.6171 6.21931 20.6171 6.04225C20.6171 5.86519 20.7603 5.72162 20.9368 5.72162H23.7783C23.9548 5.72162 24.0976 5.86519 24.0976 6.04225C24.0976 6.21931 23.9548 6.36287 23.7783 6.36287ZM25.199 6.39853C25.0026 6.39853 24.8438 6.23893 24.8438 6.04228C24.8438 5.84563 25.0026 5.68604 25.199 5.68604C25.3951 5.68604 25.5542 5.84563 25.5542 6.04228C25.5542 6.23893 25.3951 6.39853 25.199 6.39853Z" fill="#EC0000"/>
<path fill-rule="evenodd" clip-rule="evenodd" d="M36.365 11.004L36.7643 11.4049L37.2555 10.9121L37.7485 11.4067L38.1477 11.0061L37.6547 10.5115L38.1459 10.0187L37.7463 9.61811L37.2551 10.111L36.7621 9.61633L36.3629 10.0165L36.8562 10.5112L36.365 11.004Z" fill="#0D4F80"/>
<path fill-rule="evenodd" clip-rule="evenodd" d="M8.86599 24.8055L9.15547 25.0959L9.51278 24.7378L9.87046 25.0963L10.1606 24.8052L9.80333 24.4467L10.1606 24.0882L9.87046 23.7974L9.51349 24.1559L9.15582 23.7974L8.86564 24.0885L9.22331 24.447L8.86599 24.8055Z" fill="#6EE3FF"/>
<path fill-rule="evenodd" clip-rule="evenodd" d="M37.9275 15.6561C43.538 15.6561 48.0862 20.2161 48.0862 25.8417C48.0862 31.4668 43.538 36.0272 37.9279 36.0272C32.3202 36.0208 27.7756 31.464 27.7692 25.8417C27.7692 20.2161 32.3173 15.6561 37.9275 15.6561Z" fill="white"/>
<path fill-rule="evenodd" clip-rule="evenodd" d="M40.477 24.8688C40.2674 26.5558 38.9664 27.8986 37.2906 28.1569C37.5002 28.1954 37.7133 28.2147 37.9264 28.214C36.321 28.2578 34.9439 27.0747 34.7404 25.4775L34.3259 22.1348C34.1916 21.2998 34.4353 20.4481 34.9905 19.8113C35.7339 18.9696 36.8012 18.4874 37.9229 18.4874C37.925 18.4874 37.9271 18.4878 37.9293 18.4878L40.6802 23.2559L40.477 24.8688Z" fill="#FEDAC6"/>
<path fill-rule="evenodd" clip-rule="evenodd" d="M41.1106 25.4682C40.9145 27.07 39.5357 28.2592 37.9271 28.2143H37.9267C37.7136 28.2147 37.5005 28.1954 37.2909 28.1569C38.9667 27.8986 40.2677 26.5558 40.4773 24.8688L40.6805 23.2559L41.258 24.2576L41.5248 22.1251C41.6064 21.6098 41.5436 21.0885 41.3536 20.6156C41.5471 21.0896 41.6121 21.6109 41.5297 22.1251L41.1106 25.4682Z" fill="#F6C7B4"/>
<path fill-rule="evenodd" clip-rule="evenodd" d="M41.5245 22.1252L41.2578 24.2577L40.6803 23.2559L37.9294 18.4878L37.924 18.4792C39.0446 18.481 40.1113 18.9625 40.8554 19.8017C40.9562 19.9172 41.0433 20.0415 41.1232 20.1695C41.1484 20.2101 41.1758 20.2504 41.1988 20.2924C41.2134 20.3184 41.2262 20.3448 41.2397 20.3712C41.2759 20.441 41.3104 20.5112 41.3406 20.5836C41.3448 20.5943 41.3491 20.6046 41.3533 20.6156C41.5434 21.0885 41.6062 21.6099 41.5245 22.1252Z" fill="#FEE5D7"/>
<path fill-rule="evenodd" clip-rule="evenodd" d="M41.3615 35.5621C41.5593 35.4934 41.7554 35.42 41.9482 35.3395C41.755 35.4203 41.559 35.493 41.3615 35.5621Z" fill="#EC0000"/>
<path fill-rule="evenodd" clip-rule="evenodd" d="M41.8698 29.7989C40.8756 29.7989 39.6982 30.1684 38.8031 30.5191C38.7779 30.5269 38.752 30.533 38.7264 30.5415C39.6314 30.1834 40.8458 29.7917 41.8673 29.7917C43.7058 29.7917 45.3371 30.7828 45.9324 32.2606L45.9768 32.3572L45.9775 32.3586C45.9772 32.359 45.9772 32.359 45.9768 32.3593L45.9346 32.2677C45.3396 30.7899 43.7083 29.7989 41.8698 29.7989Z" fill="#990000"/>
<path fill-rule="evenodd" clip-rule="evenodd" d="M29.8965 32.2894C30.4488 30.7492 32.0183 29.7917 33.9946 29.7917C35.1163 29.7917 36.4287 30.2382 37.3287 30.6156C37.4218 30.6537 37.5184 30.6819 37.6161 30.7015C37.6239 30.7033 37.6317 30.7043 37.6395 30.7057C37.7201 30.7211 37.8029 30.7275 37.8849 30.7307C37.9361 30.7328 37.9869 30.7296 38.038 30.7264C38.0671 30.725 38.0959 30.7229 38.125 30.7193C38.2643 30.7025 38.4014 30.6694 38.5335 30.6156C39.4502 30.2382 40.7719 29.7892 41.8673 29.7892C43.7057 29.7892 45.3371 30.7802 45.9324 32.2584L45.9775 32.3561C45.9775 32.3564 45.9771 32.3568 45.9768 32.3571L45.9324 32.2606C45.3371 30.7827 43.7057 29.7917 41.8673 29.7917C40.8458 29.7917 39.6314 30.1833 38.7264 30.5415C38.7519 30.5329 38.7779 30.5272 38.8031 30.519C39.6982 30.1684 40.8756 29.7988 41.8698 29.7988C43.7082 29.7988 45.3396 30.7898 45.9345 32.2677L45.9768 32.3593L45.98 32.3657C45.7399 32.654 45.4817 32.9237 45.2138 33.1832C45.1993 33.1974 45.1847 33.212 45.1702 33.2259C45.0512 33.34 44.9301 33.4508 44.8068 33.5588C44.7635 33.5962 44.7198 33.6329 44.6761 33.67C44.5653 33.763 44.4545 33.856 44.3404 33.9447C44.2648 34.0035 44.1866 34.0588 44.1096 34.1154C43.9774 34.2123 43.8439 34.3068 43.7071 34.3973C43.5782 34.4828 43.4486 34.5676 43.3157 34.6471C43.2522 34.6856 43.1872 34.7216 43.1225 34.7583C42.9875 34.8356 42.8519 34.9105 42.7137 34.9817C42.6569 35.0109 42.6 35.0398 42.5425 35.068C42.3745 35.1506 42.204 35.2294 42.0314 35.3032C42.0037 35.3149 41.9763 35.3278 41.9486 35.3395C41.7558 35.4197 41.5593 35.4931 41.3615 35.5622C41.3395 35.5697 41.3182 35.5793 41.2961 35.5868L41.2947 35.5847C40.2214 35.9514 39.0858 36.1485 37.9261 36.1485C34.8136 36.1485 31.8624 34.7586 29.8748 32.3561L29.8965 32.2894Z" fill="#EC0000"/>
<path fill-rule="evenodd" clip-rule="evenodd" d="M37.331 30.6179C37.4234 30.656 37.5189 30.6817 37.6162 30.7013C37.6237 30.7031 37.6319 30.7041 37.6393 30.7056C37.7203 30.7213 37.8027 30.7273 37.8851 30.7309C37.9359 30.733 37.9871 30.7295 38.0378 30.7266C38.067 30.7248 38.0957 30.7227 38.1249 30.7195C38.1579 30.7156 38.1913 30.717 38.224 30.7109C37.9618 30.7993 37.7168 30.8927 37.4926 30.9882C37.1065 31.1457 36.6739 31.1457 36.2875 30.9882C35.385 30.6133 36.4285 30.2405 37.331 30.6179ZM38.8031 30.5189C39.6982 30.1686 40.8756 29.7987 41.8698 29.7987C43.7082 29.7987 45.3392 30.7897 45.9345 32.2679L45.9768 32.3595L45.98 32.3659C45.7399 32.6542 45.4817 32.924 45.2138 33.1834C45.1993 33.1977 45.1847 33.2119 45.1702 33.2262C45.0512 33.3399 44.9301 33.4507 44.8064 33.5587C44.7635 33.5961 44.7198 33.6328 44.6761 33.6699C44.5653 33.7632 44.4545 33.8562 44.3404 33.9446C44.2648 34.0034 44.1866 34.0587 44.1092 34.1153C43.9771 34.2122 43.8435 34.3067 43.7071 34.3972C43.5779 34.4831 43.4486 34.5675 43.3157 34.647C43.2518 34.6855 43.1872 34.7215 43.1225 34.7582C42.9875 34.8355 42.8515 34.9107 42.7137 34.9816C42.6569 35.0109 42.5997 35.0401 42.5425 35.0682C42.3745 35.1509 42.204 35.2297 42.0314 35.3031C42.0037 35.3148 41.9763 35.328 41.9483 35.3394C41.7558 35.4196 41.5593 35.493 41.3615 35.5621C41.3395 35.5696 41.3182 35.5796 41.2961 35.5871L41.2947 35.5846L38.4525 30.6536L38.536 30.6251C38.6205 30.5902 38.7118 30.5545 38.8031 30.5189Z" fill="#990000"/>
<path fill-rule="evenodd" clip-rule="evenodd" d="M37.9278 36.0273C43.538 36.0273 48.0861 31.4669 48.0861 25.8417C48.0861 20.2162 43.538 15.6562 37.9274 15.6562C32.3173 15.6562 27.7691 20.2162 27.7691 25.8417C27.7755 31.4641 32.3201 36.0209 37.9278 36.0273ZM37.9274 15.0148C43.891 15.0148 48.7251 19.862 48.7251 25.8417C48.7251 31.8215 43.891 36.6687 37.9271 36.6687C31.9671 36.6619 27.1365 31.8186 27.1301 25.8421C27.1301 19.862 31.9642 15.0148 37.9274 15.0148Z" fill="#0F2B4A"/>
<path fill-rule="evenodd" clip-rule="evenodd" d="M26.46 25.1734C26.46 19.2692 31.2305 14.4825 37.1156 14.4825C39.3625 14.4825 41.4457 15.1821 43.1641 16.3734C41.613 15.5089 39.8282 15.0146 37.9272 15.0146C31.964 15.0146 27.1299 19.8622 27.1299 25.8419C27.1327 28.5246 28.1099 30.9774 29.7224 32.8683C27.712 30.924 26.46 28.196 26.46 25.1734Z" fill="#C6EDF7"/>
</svg>
