<svg width="48" height="39" viewBox="0 0 48 39" fill="none" xmlns="http://www.w3.org/2000/svg">
<path fill-rule="evenodd" clip-rule="evenodd" d="M7.13842 19.4909C7.13842 29.7167 15.4272 38.0065 25.6522 38.0065C35.8769 38.0065 44.1658 29.7167 44.1658 19.4909C44.1658 9.26477 35.8769 0.974976 25.6522 0.974976C15.4272 0.974976 7.13842 9.26477 7.13842 19.4909Z" fill="white"/>
<path fill-rule="evenodd" clip-rule="evenodd" d="M7.13842 19.4909C7.13842 29.7167 15.4272 38.0065 25.6522 38.0065C35.8769 38.0065 44.1658 29.7167 44.1658 19.4909C44.1658 9.26477 35.8769 0.974976 25.6522 0.974976C15.4272 0.974976 7.13842 9.26477 7.13842 19.4909Z" fill="#E5E5E5"/>
<mask id="mask0_3353_18818" style="mask-type:alpha" maskUnits="userSpaceOnUse" x="7" y="0" width="38" height="39">
<path fill-rule="evenodd" clip-rule="evenodd" d="M7.13842 19.4909C7.13842 29.7167 15.4272 38.0065 25.6522 38.0065C35.8769 38.0065 44.1658 29.7167 44.1658 19.4909C44.1658 9.26477 35.8769 0.974976 25.6522 0.974976C15.4272 0.974976 7.13842 9.26477 7.13842 19.4909Z" fill="#E5E5E5"/>
</mask>
<g mask="url(#mask0_3353_18818)">
<path fill-rule="evenodd" clip-rule="evenodd" d="M29.4036 25.2912H21.532L22.9144 15.9333L28.9732 16.5101L29.4036 25.2912Z" fill="#F6C7B4" stroke="#0F2B4A" stroke-width="0.84645"/>
<path fill-rule="evenodd" clip-rule="evenodd" d="M28.6545 21.2499C28.4587 21.5082 28.2346 21.7368 27.9843 21.926L26.1845 23.2861C25.1575 24.0622 23.8686 24.0622 22.8416 23.2861L22.2813 22.8625V16.1776H28.6545V21.2499Z" fill="#CFA694"/>
<path fill-rule="evenodd" clip-rule="evenodd" d="M30.4383 17.2651C31.1669 17.0072 31.5504 16.1827 31.8571 15.4356C32.14 14.747 32.4266 14.043 32.4847 13.2946C32.5109 12.9574 32.4714 12.5755 32.2269 12.3587C32.0367 12.1901 31.7616 12.165 31.5211 12.2296C31.2809 12.2944 31.0669 12.4367 30.8571 12.577C29.5501 13.4518 29.7907 15.7761 30.4383 17.2651Z" fill="#EDCD99"/>
<path fill-rule="evenodd" clip-rule="evenodd" d="M29.3982 22.5865L25.4679 24.69L21.5373 22.5865L20.4062 23.6382L17.2506 25.0008C15.3825 25.8073 13.9418 27.3739 13.2861 29.3119L12.6521 33.9806L25.3025 38.3474L25.3213 36.8078L38.2834 33.9806L37.6495 29.3119C36.9937 27.3739 35.553 25.8073 33.685 25.0008L30.5293 23.6382L29.3982 22.5865Z" fill="white"/>
<path d="M25.4679 24.6902L25.6036 24.9442L25.4679 25.0169L25.3319 24.9442L25.4679 24.6902ZM29.3982 22.5868L29.2623 22.333L29.4436 22.2358L29.5942 22.3758L29.3982 22.5868ZM21.5373 22.5868L21.3413 22.3758L21.4919 22.2358L21.6732 22.333L21.5373 22.5868ZM20.4062 23.6384L20.6024 23.8493L20.566 23.8831L20.5204 23.9028L20.4062 23.6384ZM17.2506 25.001L17.1366 24.7365L17.2506 25.001ZM13.2861 29.3121L13.0009 29.2734L13.0046 29.246L13.0135 29.2198L13.2861 29.3121ZM12.6521 33.9808L12.5581 34.253L12.3349 34.1758L12.3667 33.942L12.6521 33.9808ZM25.3025 38.3476L25.5904 38.3511L25.5855 38.7499L25.2086 38.6198L25.3025 38.3476ZM25.3213 36.808L25.0334 36.8045L25.0361 36.5753L25.2598 36.5267L25.3213 36.808ZM38.2834 33.9808L38.5688 33.942L38.6045 34.2055L38.3449 34.2621L38.2834 33.9808ZM37.6494 29.3121L37.922 29.2198L37.9309 29.246L37.9346 29.2734L37.6494 29.3121ZM33.6849 25.001L33.7989 24.7365L33.6849 25.001ZM30.5293 23.6384L30.4151 23.9028L30.3696 23.8831L30.3331 23.8493L30.5293 23.6384ZM25.3319 24.4364L29.2623 22.333L29.5341 22.8406L25.6036 24.9442L25.3319 24.4364ZM25.3319 24.9442L21.4014 22.8406L21.6732 22.333L25.6036 24.4364L25.3319 24.9442ZM21.7333 22.7975L20.6024 23.8493L20.2102 23.4276L21.3413 22.3758L21.7333 22.7975ZM20.5204 23.9028L17.3648 25.2652L17.1366 24.7365L20.2922 23.3741L20.5204 23.9028ZM17.3648 25.2652C15.5719 26.0394 14.1886 27.5432 13.5589 29.4044L13.0135 29.2198C13.695 27.2052 15.1931 25.5756 17.1366 24.7365L17.3648 25.2652ZM13.5715 29.3509L12.9373 34.0196L12.3667 33.942L13.0009 29.2734L13.5715 29.3509ZM12.7459 33.7086L25.3965 38.0756L25.2086 38.6198L12.5581 34.253L12.7459 33.7086ZM25.0148 38.3441L25.0334 36.8045L25.609 36.8113L25.5904 38.3511L25.0148 38.3441ZM38.3449 34.2621L25.3825 37.0891L25.2598 36.5267L38.2222 33.6995L38.3449 34.2621ZM37.9346 29.2734L38.5688 33.942L37.9982 34.0196L37.364 29.3509L37.9346 29.2734ZM33.7989 24.7365C35.7424 25.5756 37.2405 27.2052 37.922 29.2198L37.3766 29.4044C36.7469 27.5432 35.3636 26.0394 33.5707 25.2652L33.7989 24.7365ZM30.6433 23.3741L33.7989 24.7365L33.5707 25.2652L30.4151 23.9028L30.6433 23.3741ZM29.5942 22.3758L30.7253 23.4276L30.3331 23.8493L29.2022 22.7975L29.5942 22.3758Z" fill="#0F2B4A"/>
<path fill-rule="evenodd" clip-rule="evenodd" d="M18.9034 8.21081C19.723 5.72001 22.4518 4.80373 25.4615 4.94759C28.4722 4.80373 31.2033 5.72001 32.0249 8.21081C32.3278 9.13407 32.0445 12.8857 31.776 13.8245C31.625 14.391 31.0916 17.07 30.9051 15.1382C30.8946 14.7729 30.6222 11.4552 30.2399 10.8647C29.4374 9.59784 28.2477 9.54375 27.5682 9.95032C26.8599 10.3788 26.2874 10.4141 25.4615 10.373C24.6373 10.4141 24.0638 10.3788 23.3561 9.95032C22.6744 9.54375 21.4884 9.59784 20.6854 10.8647C20.3062 11.4552 20.0301 14.7729 20.019 15.1382C19.8358 17.07 19.3055 14.391 19.1465 13.8245C18.885 12.8857 18.5973 9.13407 18.9034 8.21081Z" fill="#0F2B4A"/>
<path fill-rule="evenodd" clip-rule="evenodd" d="M19.3926 7.03462C20.6248 5.05761 23.8339 3.35591 27.9291 4.1863C30.2374 4.64735 30.7316 6.34692 30.8092 6.39074C32.6803 7.46212 31.682 10.0673 30.3055 10.3238C29.9792 10.3849 29.7438 10.5976 29.5303 10.6716C28.9855 10.8514 28.4122 10.819 27.8511 10.774C26.0118 10.6133 23.9244 10.0613 22.0903 10.4184C20.9879 10.6251 19.7275 11.1641 18.9079 12.3014C18.8566 12.3702 18.4351 8.57346 19.3926 7.03462Z" fill="#0F2B4A"/>
<path d="M29.7795 25.6525L28.0129 27.9506L25.5696 24.7157" stroke="#0F2B4A" stroke-width="0.84645" stroke-linecap="round"/>
<path d="M20.3461 24.1897L23.237 27.95L25.468 24.8958" stroke="#0F2B4A" stroke-width="0.84645" stroke-linecap="round"/>
<path fill-rule="evenodd" clip-rule="evenodd" d="M25.6147 24.5759L26.9395 26.5324C27.0977 26.6299 27.0956 26.9516 26.9358 27.0479L26.6638 27.215L25.8346 27.717C25.7746 27.7548 25.6955 27.773 25.6147 27.7804C25.536 27.773 25.4578 27.7525 25.396 27.7151L24.5701 27.2046L24.3015 27.034C24.1412 26.9364 24.1425 26.6156 24.3031 26.5198L25.6147 24.5759Z" fill="#0F2B4A"/>
<path d="M31.187 23.8689L30.5187 24.7162" stroke="#0F2B4A" stroke-width="0.84645" stroke-linecap="round"/>
<g style="mix-blend-mode:multiply">
<path fill-rule="evenodd" clip-rule="evenodd" d="M20.0462 23.8681L23.0205 28.0199L25.7698 24.7153L21.8297 22.8308L20.7145 23.6668L20.0462 23.8681Z" fill="#E9F4F7"/>
</g>
<g style="mix-blend-mode:multiply">
<path fill-rule="evenodd" clip-rule="evenodd" d="M34.0791 29.7228C34.0791 29.7228 33.6621 25.7371 30.5187 25.0147L31.187 23.8689L35.0421 25.4422L36.9592 27.9511L35.0421 31.0278L34.0791 31.8834V29.7228Z" fill="#C6EDF6"/>
</g>
<g style="mix-blend-mode:multiply">
<path fill-rule="evenodd" clip-rule="evenodd" d="M24.1818 34.0926L25.0959 26.5178L23.2368 27.95L20.3458 24.1897L16.8333 25.4251L13.7723 28.0196L12.826 33.8363L24.1818 34.0926Z" fill="#E9F4F7"/>
</g>
<path fill-rule="evenodd" clip-rule="evenodd" d="M29.4036 25.2912H21.532L22.9144 15.9333L28.9732 16.5101L29.4036 25.2912Z" fill="#FEDAC6" stroke="#0F2B4A" stroke-width="0.84645"/>
<path fill-rule="evenodd" clip-rule="evenodd" d="M28.6545 21.2499C28.4587 21.5082 28.2346 21.7368 27.9843 21.926L26.1845 23.2861C25.1575 24.0622 23.8686 24.0622 22.8416 23.2861L22.2813 22.8625V16.1776H28.6545V21.2499Z" fill="#F6C7B4"/>
<path fill-rule="evenodd" clip-rule="evenodd" d="M30.4383 17.2651C31.1669 17.0072 31.5504 16.1827 31.8571 15.4356C32.14 14.747 32.4266 14.043 32.4847 13.2946C32.5109 12.9574 32.4714 12.5755 32.2269 12.3587C32.0367 12.1901 31.7616 12.165 31.5211 12.2296C31.2809 12.2944 31.0669 12.4367 30.8571 12.577C29.5501 13.4518 29.7907 15.7761 30.4383 17.2651Z" fill="#FEDAC6"/>
<path fill-rule="evenodd" clip-rule="evenodd" d="M29.3982 22.5865L25.4679 24.69L21.5373 22.5865L20.4062 23.6382L17.2506 25.0008C15.3825 25.8073 13.9418 27.3739 13.2861 29.3119L12.6521 33.9806L25.0968 41.9427L25.096 41.9805L25.1266 41.9619L25.1559 41.9805L25.1565 41.9439L38.2834 33.9806L37.6495 29.3119C36.9937 27.3739 35.553 25.8073 33.685 25.0008L30.5293 23.6382L29.3982 22.5865Z" fill="white"/>
<path d="M25.4679 24.6902L25.6036 24.9442L25.4679 25.0169L25.332 24.9442L25.4679 24.6902ZM29.3983 22.5868L29.2623 22.333L29.4436 22.2358L29.5943 22.3758L29.3983 22.5868ZM21.5373 22.5868L21.3413 22.3758L21.492 22.2358L21.6732 22.333L21.5373 22.5868ZM20.4062 23.6384L20.6024 23.8493L20.566 23.8831L20.5204 23.9028L20.4062 23.6384ZM13.2861 29.3121L13.0009 29.2734L13.0046 29.246L13.0135 29.2198L13.2861 29.3121ZM25.0968 41.9429L25.2519 41.7004L25.3882 41.7874L25.3847 41.9491L25.0968 41.9429ZM25.096 41.9807L25.2453 42.227L24.7969 42.499L24.8081 41.9745L25.096 41.9807ZM25.1267 41.9621L24.9774 41.7159L25.1307 41.6228L25.282 41.7196L25.1267 41.9621ZM37.6495 29.3121L37.9221 29.2198L37.931 29.246L37.9347 29.2734L37.6495 29.3121ZM30.5294 23.6384L30.4152 23.9028L30.3696 23.8831L30.3331 23.8493L30.5294 23.6384ZM25.332 24.4364L29.2623 22.333L29.5342 22.8406L25.6036 24.9442L25.332 24.4364ZM25.332 24.9442L21.4014 22.8406L21.6732 22.333L25.6036 24.4364L25.332 24.9442ZM21.7333 22.7975L20.6024 23.8493L20.2102 23.4276L21.3413 22.3758L21.7333 22.7975ZM20.5204 23.9028L17.3648 25.2652L17.1366 24.7365L20.2922 23.3741L20.5204 23.9028ZM17.3648 25.2652C15.572 26.0394 14.1886 27.5432 13.5589 29.4044L13.0135 29.2198C13.695 27.2052 15.1931 25.5756 17.1366 24.7365L17.3648 25.2652ZM13.5715 29.3509L12.9373 34.0196L12.6521 33.9808L12.3667 33.942L13.0009 29.2734L13.5715 29.3509ZM24.8081 41.9745L24.8089 41.9367L25.3847 41.9491L25.3837 41.9869L24.8081 41.9745ZM25.2761 42.2082L25.2453 42.227L24.9467 41.7345L24.9774 41.7159L25.2761 42.2082ZM25.282 41.7196L25.311 41.7382L25.0006 42.2233L24.9715 42.2047L25.282 41.7196ZM37.9347 29.2734L38.5688 33.942L38.2835 33.9808L37.9983 34.0196L37.3641 29.3509L37.9347 29.2734ZM33.799 24.7365C35.7424 25.5756 37.2406 27.2052 37.9221 29.2198L37.3767 29.4044C36.7469 27.5432 35.3636 26.0394 33.5708 25.2652L33.799 24.7365ZM30.6434 23.3741L33.799 24.7365L33.5708 25.2652L30.4152 23.9028L30.6434 23.3741ZM29.5943 22.3758L30.7254 23.4276L30.3331 23.8493L29.2022 22.7975L29.5943 22.3758Z" fill="#0F2B4A"/>
<path fill-rule="evenodd" clip-rule="evenodd" d="M25.3606 5.57385C31.1406 5.57385 31.515 10.0242 31.5181 14.0091V14.0253V14.0601C31.5181 16.705 29.7245 19.4901 29.7245 19.4901C29.7245 19.4901 27.2868 21.7527 26.5962 21.9163H24.1259C23.5941 21.7858 21.4411 19.8879 21.4411 19.8879C21.4411 19.8879 20.0833 18.0806 19.4827 15.9357C19.4807 15.936 19.4788 15.9364 19.4769 15.9368C18.9792 16.0466 18.4078 15.4372 18.2077 14.576C18.0032 13.7161 18.2395 12.9334 18.7368 12.8186C18.8909 12.7853 19.0525 12.8217 19.2078 12.9134C19.2578 9.25121 19.7865 5.57385 25.3606 5.57385Z" fill="#FEDAC6"/>
<path d="M31.5182 14.0083L31.8062 14.0081L31.5182 14.0083ZM31.5182 14.0246L31.8062 14.0244V14.0246H31.5182ZM31.5182 14.0593L31.8062 14.0591V14.0593H31.5182ZM29.7246 19.4893L29.9668 19.6452L29.9472 19.6758L29.9207 19.7004L29.7246 19.4893ZM26.5964 21.9155L26.6629 22.1957L26.6301 22.2034H26.5964V21.9155ZM24.1261 21.9155V22.2034H24.0914L24.0575 22.1953L24.1261 21.9155ZM21.4412 19.8871L21.2509 20.1031L21.2288 20.0836L21.2111 20.0601L21.4412 19.8871ZM19.4828 15.9349L19.4196 15.6539L19.6864 15.594L19.7601 15.8571L19.4828 15.9349ZM19.477 15.936L19.4152 15.6549L19.4169 15.6545L19.477 15.936ZM18.2079 14.5752L18.4878 14.5085L18.4882 14.5098L18.2079 14.5752ZM18.737 12.8178L18.6722 12.5373L18.6742 12.5369L18.6761 12.5365L18.737 12.8178ZM19.2079 12.9127L19.4958 12.9167L19.4891 13.4133L19.0614 13.1606L19.2079 12.9127ZM31.2303 14.0085C31.2288 12.0096 31.1303 9.96778 30.3491 8.42642C29.9629 7.66466 29.4113 7.02912 28.6191 6.58125C27.8246 6.13203 26.7693 5.86098 25.3608 5.86098V5.28516C26.8422 5.28516 28.0012 5.57036 28.9026 6.08007C29.8065 6.59114 30.4323 7.31723 30.8627 8.16604C31.7144 9.84622 31.8046 12.022 31.8062 14.0081L31.2303 14.0085ZM31.2303 14.0248V14.0085L31.8062 14.0081V14.0244L31.2303 14.0248ZM31.2303 14.0593V14.0246H31.8062V14.0591L31.2303 14.0593ZM29.7246 19.4893C29.4827 19.3334 29.4827 19.3336 29.4827 19.3336V19.3334C29.4829 19.3332 29.4831 19.3328 29.4834 19.3323C29.484 19.3313 29.4852 19.3295 29.4867 19.327C29.4898 19.3224 29.4945 19.315 29.5007 19.3049C29.5129 19.2851 29.5315 19.2551 29.5552 19.2159C29.6027 19.1372 29.6711 19.0209 29.7533 18.873C29.9179 18.5767 30.1378 18.1542 30.3577 17.6509C30.7997 16.6385 31.2303 15.3236 31.2303 14.0593H31.8062C31.8062 15.4397 31.3401 16.8399 30.8854 17.8814C30.6568 18.4049 30.4282 18.8441 30.2567 19.1527C30.1708 19.3073 30.099 19.4292 30.0484 19.5132C30.023 19.5552 30.0031 19.5876 29.9891 19.6099C29.9821 19.621 29.9767 19.6297 29.973 19.6355C29.9711 19.6384 29.9697 19.6407 29.9685 19.6425C29.9682 19.6432 29.9676 19.6438 29.9674 19.6444C29.9672 19.6446 29.967 19.6448 29.967 19.645C29.967 19.645 29.9668 19.645 29.9668 19.6452C29.9668 19.6452 29.9668 19.6452 29.7246 19.4893ZM26.5301 21.6354C26.5731 21.6253 26.6567 21.59 26.7838 21.5158C26.9056 21.4446 27.0493 21.3486 27.2081 21.234C27.5252 21.0051 27.8884 20.7121 28.2341 20.4209C28.5788 20.1305 28.9028 19.8445 29.1409 19.631C29.2597 19.5244 29.3568 19.4362 29.4243 19.3745C29.4581 19.3437 29.4842 19.3195 29.5021 19.3032C29.511 19.2948 29.5178 19.2886 29.5222 19.2846C29.5244 19.2824 29.5261 19.2809 29.5273 19.2799C29.5278 19.2793 29.5282 19.2789 29.5284 19.2787C29.5286 19.2786 29.5288 19.2786 29.5288 19.2784C29.5288 19.2784 29.5288 19.2784 29.7246 19.4893C29.9207 19.7004 29.9205 19.7004 29.9205 19.7004C29.9205 19.7004 29.9205 19.7004 29.9205 19.7006C29.9203 19.7006 29.9203 19.7008 29.9201 19.7008C29.9197 19.7012 29.9193 19.7016 29.9187 19.7022C29.9174 19.7033 29.9156 19.7051 29.9133 19.7072C29.9084 19.7117 29.9015 19.7181 29.8923 19.7266C29.8739 19.7433 29.8472 19.7681 29.8129 19.7993C29.7442 19.8621 29.6457 19.9517 29.5253 20.0597C29.2845 20.2757 28.9559 20.5657 28.605 20.8612C28.2548 21.1563 27.8791 21.4597 27.545 21.7009C27.3781 21.8213 27.2179 21.9289 27.0743 22.0131C26.936 22.0937 26.7922 22.1651 26.6629 22.1957L26.5301 21.6354ZM24.1261 21.6276H26.5964V22.2034H24.1261V21.6276ZM21.4412 19.8871C21.6316 19.6712 21.6316 19.6712 21.6316 19.6712C21.6318 19.6712 21.6318 19.6712 21.6318 19.6712C21.6318 19.6712 21.6318 19.6714 21.632 19.6714C21.6322 19.6716 21.6326 19.6719 21.6332 19.6723C21.6342 19.6733 21.6357 19.6747 21.6376 19.6764C21.6415 19.6799 21.6475 19.6851 21.6555 19.6919C21.671 19.7057 21.6943 19.7258 21.7239 19.7518C21.7833 19.8034 21.8689 19.8777 21.9733 19.967C22.1823 20.146 22.4659 20.3856 22.7656 20.6289C23.0662 20.8726 23.3797 21.1177 23.649 21.3087C23.7837 21.4045 23.9039 21.4842 24.0038 21.5427C24.1102 21.6051 24.1715 21.6303 24.1947 21.636L24.0575 22.1953C23.9477 22.1684 23.8254 22.1057 23.7124 22.0392C23.5927 21.969 23.4574 21.8791 23.3157 21.7785C23.0317 21.5768 22.7071 21.3228 22.4029 21.076C22.0979 20.8284 21.8102 20.5853 21.5987 20.4044C21.493 20.3139 21.4062 20.2387 21.3459 20.1861C21.3156 20.1597 21.292 20.1392 21.2759 20.125C21.2677 20.1179 21.2617 20.1124 21.2574 20.1088C21.2553 20.107 21.2538 20.1057 21.2526 20.1047C21.252 20.1041 21.2516 20.1037 21.2514 20.1035C21.2512 20.1033 21.2512 20.1033 21.251 20.1031C21.251 20.1031 21.2509 20.1031 21.4412 19.8871ZM19.7601 15.8571C20.0517 16.8983 20.529 17.8634 20.9368 18.5717C21.1401 18.9249 21.3251 19.2121 21.4585 19.4104C21.5254 19.5095 21.5793 19.5862 21.6161 19.6378C21.6345 19.6638 21.6487 19.6832 21.6582 19.696C21.6629 19.7024 21.6663 19.7072 21.6687 19.7103C21.6696 19.7117 21.6706 19.7128 21.671 19.7134C21.6712 19.7138 21.6714 19.714 21.6716 19.7142C21.6716 19.7142 21.6716 19.7142 21.4412 19.8871C21.2111 20.0601 21.2111 20.0601 21.2111 20.0599H21.2109C21.2109 20.0597 21.2107 20.0595 21.2107 20.0593C21.2103 20.0591 21.2101 20.0585 21.2098 20.0582C21.2088 20.057 21.2076 20.0554 21.2063 20.0535C21.2034 20.0496 21.1991 20.0438 21.1937 20.0366C21.183 20.0219 21.1675 20.0004 21.1475 19.9727C21.1078 19.917 21.051 19.8358 20.981 19.732C20.8412 19.5244 20.649 19.2256 20.4379 18.859C20.0166 18.1273 19.5146 17.1164 19.2056 16.0124L19.7601 15.8571ZM19.5461 16.2158C19.543 16.2164 19.54 16.217 19.5371 16.2177L19.4169 15.6545C19.4179 15.6543 19.4187 15.6541 19.4196 15.6539L19.5461 16.2158ZM19.5389 16.2174C19.1482 16.3034 18.7839 16.0983 18.5204 15.8162C18.2505 15.5273 18.0369 15.1118 17.9273 14.6403L18.4882 14.5098C18.5788 14.8997 18.7509 15.2195 18.9411 15.4232C19.1379 15.6338 19.3082 15.6786 19.4152 15.6549L19.5389 16.2174ZM17.9277 14.6417C17.8161 14.1719 17.8207 13.7087 17.9335 13.3341C18.0442 12.9667 18.2814 12.6276 18.6722 12.5373L18.8017 13.0984C18.6953 13.123 18.5656 13.2326 18.4849 13.5003C18.4064 13.7605 18.3952 14.1186 18.4878 14.5085L17.9277 14.6417ZM18.6761 12.5365C18.9179 12.4842 19.1531 12.546 19.3543 12.6649L19.0614 13.1606C18.952 13.0959 18.8644 13.085 18.7979 13.0994L18.6761 12.5365ZM25.3608 5.86098C22.6447 5.86098 21.2284 6.75032 20.459 8.01869C19.669 9.32158 19.5209 11.0822 19.4958 12.9167L18.92 12.9088C18.945 11.0809 19.0864 9.1717 19.9666 7.72011C20.8677 6.2344 22.5027 5.28516 25.3608 5.28516V5.86098Z" fill="#0F2B4A"/>
<path fill-rule="evenodd" clip-rule="evenodd" d="M22.6493 8.96879C23.2821 8.79759 23.9456 8.82474 24.6053 8.89337C26.0073 9.03839 27.811 9.77572 29.1883 9.22258C29.2591 9.1933 29.311 9.25981 29.2866 9.31836C28.9442 10.3845 27.0475 10.2321 26.1893 10.1391C25.2225 10.0353 24.2265 9.91183 23.2493 10.0353C22.7129 10.1092 22.3199 10.4576 21.9561 10.8231C21.9051 10.9109 21.8578 11.0051 21.8041 11.091C20.983 12.5087 20.8638 14.7682 21.454 16.3078C21.8041 17.3714 22.9864 18.203 23.8096 19.1534C24.6872 20.2566 26.1281 20.198 27.6747 20.4415C27.1861 20.8392 26.6411 21.3615 26.6411 21.6676H24.2265C23.7067 21.5331 21.6023 19.5857 21.6023 19.5857C21.6023 19.5857 19.4142 16.5271 19.4142 13.6041C19.4142 10.2453 19.3558 7.26205 22.6493 6.03381C22.8226 7.26787 22.9141 7.7865 22.6493 8.96879Z" fill="#F6C7B4"/>
<path fill-rule="evenodd" clip-rule="evenodd" d="M25.0113 5.26975C25.3816 5.25152 25.7638 5.24765 26.1566 5.25986C29.0283 5.19297 31.5406 5.57104 32.3375 7.80571C32.6549 8.70048 32.3581 12.3354 32.0767 13.2451C32.055 13.3207 32.0255 13.4349 31.9906 13.5708C31.7718 14.4235 31.333 16.1323 31.1645 14.5181C31.1533 14.1641 30.8681 10.9495 30.4675 10.3772C30.3456 10.1992 30.2151 10.046 30.079 9.91515C30.0547 9.92562 30.0309 9.93589 30.0074 9.94597C29.9111 9.98766 29.8223 10.0262 29.7368 10.0487C29.1652 10.191 28.564 10.1653 27.9754 10.1298C27.417 10.0927 26.8365 10.0299 26.2471 9.96614C24.8009 9.80948 23.3003 9.64682 21.9336 9.84787C21.5129 9.90759 21.0705 10.002 20.6362 10.1414C20.5751 10.2147 20.5156 10.2932 20.458 10.3772C20.0607 10.9495 19.7717 14.1641 19.76 14.5181C19.5975 16.1011 19.1753 14.4886 18.948 13.6214C18.9067 13.4632 18.8717 13.3298 18.8461 13.2451C18.7156 12.8121 18.5789 11.8675 18.5062 10.9001C18.4726 10.6259 18.4455 10.2475 18.455 9.83255C18.4438 9.1658 18.4802 8.58357 18.5913 8.27375C19.4087 5.97586 22.0397 5.21682 25.0113 5.26975Z" fill="#0F2B4A"/>
<path fill-rule="evenodd" clip-rule="evenodd" d="M24.2255 6.0097C24.3181 5.97422 24.4116 5.94204 24.5076 5.91276C23.2725 6.80811 22.1612 7.88492 21.2197 9.09862C21.4194 8.50205 21.6207 7.94212 21.9004 7.38005C21.35 7.63598 20.8287 8.25214 20.3649 8.64649C20.9772 7.31239 21.8882 6.336 23.1128 5.57385C22.6517 6.06515 22.1897 6.55684 21.7269 7.04949C22.1544 6.77398 22.5804 6.49712 23.006 6.22258C22.7675 6.53822 22.5304 6.85386 22.2919 7.16989C22.8588 6.66541 23.5178 6.27067 24.2255 6.0097Z" fill="#0D4F80"/>
<path fill-rule="evenodd" clip-rule="evenodd" d="M26.5089 26.2829L27.5283 38.2015L23.9658 38.2031L24.7634 26.2829L25.6485 25.0219L26.5089 26.2829Z" fill="#0F2B4A"/>
<path d="M29.7795 25.6525L28.0129 27.9506L25.5696 24.7157" stroke="#0F2B4A" stroke-width="0.84645" stroke-linecap="round"/>
<path d="M20.3461 24.1897L23.237 27.95L25.468 24.8958" stroke="#0F2B4A" stroke-width="0.84645" stroke-linecap="round"/>
<path fill-rule="evenodd" clip-rule="evenodd" d="M25.6147 24.5759L26.9395 26.5324C27.0977 26.6299 27.0956 26.9516 26.9358 27.0479L26.6638 27.215L25.8346 27.717C25.7746 27.7548 25.6955 27.773 25.6147 27.7804C25.536 27.773 25.4578 27.7525 25.396 27.7151L24.5701 27.2046L24.3015 27.034C24.1412 26.9364 24.1425 26.6156 24.3031 26.5198L25.6147 24.5759Z" fill="#0F2B4A"/>
<path d="M31.187 23.8689L30.5187 24.7162" stroke="#0F2B4A" stroke-width="0.84645" stroke-linecap="round"/>
<g style="mix-blend-mode:multiply">
<path fill-rule="evenodd" clip-rule="evenodd" d="M20.0462 23.8681L21.5955 26.0306L23.0205 28.0199L25.7698 24.7153L21.8297 22.8308L20.7145 23.6668L20.0462 23.8681Z" fill="#E9F4F7"/>
</g>
<g style="mix-blend-mode:multiply">
<path fill-rule="evenodd" clip-rule="evenodd" d="M34.9632 32.2306C34.9632 32.2306 34.3794 26.7346 29.9795 25.7387L30.915 24.1585C30.915 24.1585 32.0265 23.0214 34.9632 25.7387C37.8999 28.4559 38.2834 33.1223 38.2834 33.1223L36.3113 34.03L34.9632 35.2098V32.2306Z" fill="#C6EDF6"/>
</g>
</g>
<path d="M42.7117 4.90096C42.7117 3.85696 43.5581 3.01062 44.6021 3.01062C45.6461 3.01062 46.4924 3.85696 46.4924 4.90096C46.4924 5.94497 45.6461 6.79131 44.6021 6.79131C43.5581 6.79131 42.7117 5.94497 42.7117 4.90096Z" stroke="#E10714" stroke-width="0.855"/>
<path d="M1.41502 22.4956C1.41502 21.6925 2.06605 21.0415 2.86913 21.0415C3.67221 21.0415 4.32324 21.6925 4.32324 22.4956C4.32324 23.2987 3.67221 23.9497 2.86913 23.9497C2.06605 23.9497 1.41502 23.2987 1.41502 22.4956Z" stroke="#990000" stroke-width="0.855"/>
<path d="M1.8419 8.74951L2.94703 9.85463L4.75846 8.0432L6.57067 9.85541L7.67773 8.74854L5.86533 6.93613L7.67676 5.1247L6.57164 4.01957L4.7602 5.83101L2.9478 4.0188L1.84093 5.12567L3.65314 6.93807L1.8419 8.74951Z" fill="#001357"/>
<path d="M46.1464 23.3904L46.4676 23.7117L46.8648 23.3144L47.2611 23.7105L47.5839 23.3877L47.1877 22.9916L47.585 22.5941L47.2638 22.2731L46.8665 22.6703L46.4702 22.274L46.1474 22.5969L46.5437 22.9932L46.1464 23.3904Z" fill="#2B465B"/>
<path fill-rule="evenodd" clip-rule="evenodd" d="M35.6006 20.0232C36.1595 20.1184 36.5686 20.6029 36.5686 21.17V29.6703C36.5686 30.1011 36.2539 30.4676 35.8282 30.5327L31.335 31.2206V19.2969L35.6006 20.0232ZM30.4613 20.1693C30.4613 19.6875 30.8518 19.2969 31.3338 19.2969V31.2206H31.2743C30.8252 31.2206 30.4613 30.8567 30.4613 30.4076V20.1693Z" fill="#C3DEE7"/>
<path fill-rule="evenodd" clip-rule="evenodd" d="M31.3337 19.2969C30.8064 19.2969 30.3789 19.7244 30.3789 20.2517V30.2657C30.3789 30.7931 30.8064 31.2206 31.3337 31.2206V19.2969Z" fill="#9BC3D3"/>
<path fill-rule="evenodd" clip-rule="evenodd" d="M36.5686 21.17C36.5686 20.6029 36.1595 20.1184 35.6006 20.0232L31.335 19.2969C30.8524 19.2969 30.4613 19.6879 30.4613 20.1705V30.347C30.4613 30.8295 30.8524 31.2206 31.335 31.2206L35.8282 30.5327C36.2539 30.4676 36.5686 30.1011 36.5686 29.6703V21.17Z" stroke="#0B2747" stroke-width="0.64125"/>
<path fill-rule="evenodd" clip-rule="evenodd" d="M39.6654 29.9722C39.6654 29.9722 39.4754 25.9385 38.3227 25.4563C37.1703 24.9744 33.7584 23.0133 33.3167 22.8428C32.8752 22.6724 32.4646 23.0259 32.4646 23.0259C32.4646 23.0259 32.3081 23.6414 32.8124 24.0209C33.3167 24.4003 35.7038 25.7377 35.7038 25.7377L36.3372 25.8428L32.8124 25.6254C32.8124 25.6254 32.1406 25.6473 32.1406 26.0859C32.1406 26.5244 32.3944 26.7189 32.8124 26.792C33.2304 26.8653 36.2358 27.0264 36.2358 27.0264L33.1411 27.3124C33.1411 27.3124 32.6752 27.4124 32.6752 27.8188C32.6752 28.2254 33.497 28.2298 33.497 28.2298C33.497 28.2298 35.8345 28.0753 35.9541 28.2298C36.0737 28.3844 36.4161 28.8807 35.9541 28.9619C35.4921 29.043 34.4513 28.9619 34.4513 28.9619C34.4513 28.9619 33.7985 28.9084 33.7198 29.1696C33.6409 29.4305 34.0876 29.5668 34.3127 29.6326C34.538 29.6983 36.1012 29.7853 36.1012 29.7853C36.1012 29.7853 36.7742 30.0614 36.8981 30.5537C37.022 31.046 37.0774 32.1691 37.3211 32.3143C37.5649 32.4594 39.4612 33.0179 39.6654 31.9303C39.8695 30.8424 39.6654 29.9722 39.6654 29.9722Z" fill="#FEDAC6"/>
<path fill-rule="evenodd" clip-rule="evenodd" d="M39.2158 32.4655C39.2158 32.4655 38.2016 32.7117 37.2342 32.2863C36.9164 31.2213 36.846 30.3291 36.846 30.3291C36.846 30.3291 36.5959 29.8704 36.3355 29.8704C36.0751 29.8704 35.6372 29.7335 35.6372 29.7335H35.0067H34.52C34.52 29.7335 33.835 29.5815 33.9516 29.4873C34.0681 29.393 34.3498 29.2959 34.8682 29.2959C35.3867 29.2959 36.3925 29.2253 36.5684 29.2959C36.7442 29.3665 37.4618 29.4617 37.969 29.9776C38.476 30.4935 38.9669 31.1236 39.0913 31.4086C39.2158 31.6936 39.2158 32.4655 39.2158 32.4655Z" fill="#F6C7B4"/>
<path fill-rule="evenodd" clip-rule="evenodd" d="M39.7677 29.9486C39.7677 29.9486 39.4755 25.9385 38.3231 25.4563C37.1704 24.9744 33.7585 23.0133 33.317 22.8428C32.8754 22.6724 32.4647 23.0259 32.4647 23.0259C32.4647 23.0259 32.3085 23.6414 32.8128 24.0209C33.317 24.4003 35.7039 25.7377 35.7039 25.7377L36.3375 25.8428L32.8128 25.6254C32.8128 25.6254 32.1408 25.6473 32.1408 26.0859C32.1408 26.5244 32.3946 26.7189 32.8128 26.792C33.2308 26.8653 36.2359 27.0264 36.2359 27.0264L33.1412 27.3124C33.1412 27.3124 32.6753 27.4124 32.6753 27.8188C32.6753 28.2254 33.4973 28.2298 33.4973 28.2298C33.4973 28.2298 35.8346 28.0753 35.9542 28.2298C36.0738 28.3844 36.4162 28.8807 35.9542 28.9619C35.4922 29.043 34.4516 28.9619 34.4516 28.9619C34.4516 28.9619 33.7988 28.9084 33.7199 29.1696C33.641 29.4305 34.0877 29.5668 34.313 29.6326C34.5381 29.6983 36.1014 29.7853 36.1014 29.7853C36.1014 29.7853 36.7745 30.0614 36.8984 30.5537C37.0221 31.046 37.0776 32.1691 37.3213 32.3143C37.565 32.4594 39.4613 33.0179 39.6655 31.9302C39.8698 30.8424 39.7677 29.9486 39.7677 29.9486Z" stroke="#0B2747" stroke-width="0.64125" stroke-linejoin="round"/>
<path d="M35.8416 21.142C35.8416 20.9924 35.7277 20.8669 35.5786 20.8526C35.4078 20.8361 35.2599 20.9704 35.2599 21.142V21.9703C35.2599 22.131 35.39 22.2611 35.5507 22.2611C35.7113 22.2611 35.8416 22.131 35.8416 21.9703V21.142Z" fill="#9BC3D3" stroke="#0B2747" stroke-width="0.4275"/>
<path fill-rule="evenodd" clip-rule="evenodd" d="M39.6837 32.0222C38.6584 32.2599 37.5087 32.1853 37.0812 32.0222C36.6539 31.8594 36.6913 32.8441 36.7659 33.3561C36.7993 33.5849 36.9649 33.7722 37.188 33.8333C37.8181 34.1406 39.3343 34.1307 39.9855 33.7292C40.1104 33.3916 40.1277 32.9036 40.0375 32.265C40.015 32.106 39.8679 31.9951 39.7089 32.0176" fill="white"/>
<path d="M39.6837 32.0222C38.6584 32.2599 37.5087 32.1853 37.0812 32.0222C36.6539 31.8594 36.6913 32.8441 36.7659 33.3561C36.7993 33.5849 36.9649 33.7722 37.188 33.8333C37.8181 34.1406 39.3343 34.1307 39.9855 33.7292C40.1104 33.3916 40.1277 32.9036 40.0375 32.265C40.015 32.106 39.8679 31.9951 39.7089 32.0176" stroke="#0B2747" stroke-width="0.64125" stroke-linecap="round" stroke-linejoin="round"/>
</svg>
