<svg width="5" height="5" viewBox="0 0 5 5" fill="none" xmlns="http://www.w3.org/2000/svg">
<path fill-rule="evenodd" clip-rule="evenodd" d="M4.02158 0.674988C4.0977 0.674988 4.17066 0.7054 4.22427 0.759466C4.33495 0.870859 4.33495 1.05076 4.22427 1.16216L2.71271 2.67441L4.22427 4.18661C4.27831 4.24024 4.30871 4.31323 4.30871 4.38938C4.30871 4.46553 4.27831 4.53853 4.22427 4.59216C4.17039 4.64562 4.09746 4.67542 4.02158 4.67498C3.9457 4.67542 3.87276 4.64562 3.81889 4.59216L2.30729 3.07984L0.798538 4.5893C0.745133 4.64381 0.672141 4.67466 0.595849 4.67498C0.519968 4.67542 0.447035 4.64562 0.39316 4.59216C0.339115 4.53853 0.308716 4.46553 0.308716 4.38938C0.308716 4.31323 0.339115 4.24024 0.39316 4.18661L1.903 2.67584L0.39316 1.16501C0.281218 1.05302 0.281218 0.871455 0.39316 0.759466C0.505102 0.647478 0.686596 0.647478 0.798538 0.759466L2.30871 2.27013L3.81889 0.759466C3.87249 0.7054 3.94546 0.674988 4.02158 0.674988Z" fill="#EC0000"/>
</svg>
