<svg width="3" height="5" viewBox="0 0 3 5" fill="none" xmlns="http://www.w3.org/2000/svg">
<path fill-rule="evenodd" clip-rule="evenodd" d="M2.68614 0.674993C2.76909 0.674558 2.84881 0.704364 2.9077 0.75783C2.96677 0.811462 3 0.884468 3 0.960628C3 1.03679 2.96677 1.10979 2.9077 1.16342L1.25384 2.67441L2.9077 4.18539C3.03006 4.29739 3.03006 4.47898 2.9077 4.59099C2.78534 4.70299 2.58695 4.70299 2.46459 4.59099L0.592304 2.87721C0.533229 2.82357 0.5 2.75057 0.5 2.67441C0.5 2.59825 0.533229 2.52524 0.592304 2.47161L2.46459 0.75783C2.52348 0.704364 2.6032 0.674558 2.68614 0.674993Z" fill="#EC0000"/>
</svg>
