<svg width="6" height="6" viewBox="0 0 6 6" fill="none" xmlns="http://www.w3.org/2000/svg">
<path fill-rule="evenodd" clip-rule="evenodd" d="M5.80798 3.42499C5.87708 3.42499 5.93298 3.48079 5.93298 3.54976V4.18362C5.93298 4.73024 5.48743 5.17499 4.93982 5.17499H1.92688C1.37927 5.17499 0.933716 4.73024 0.933716 4.18362V3.54976C0.933716 3.48079 0.989624 3.42499 1.05872 3.42499C1.12781 3.42499 1.18372 3.48079 1.18372 3.54976V4.18362C1.18372 4.59255 1.51721 4.92544 1.92688 4.92544H4.93982C5.34949 4.92544 5.68298 4.59255 5.68298 4.18362V3.54976C5.68298 3.48079 5.73889 3.42499 5.80798 3.42499ZM3.43372 0.174988C3.50762 0.174988 3.56742 0.233117 3.56742 0.304954V3.48142L4.33048 2.73969C4.38271 2.68893 4.46732 2.68893 4.51954 2.73969C4.57177 2.79046 4.57177 2.87271 4.51954 2.92348L3.52841 3.8869C3.51604 3.89895 3.50122 3.90852 3.48477 3.91514C3.45209 3.92827 3.41534 3.92827 3.38266 3.91514C3.36621 3.90852 3.35139 3.89895 3.33902 3.8869L2.34789 2.92348C2.32177 2.89809 2.30872 2.86484 2.30872 2.83158C2.30872 2.79833 2.32177 2.76508 2.34789 2.73969C2.40012 2.68893 2.48473 2.68893 2.53695 2.73969L3.30001 3.48142V0.304954C3.30001 0.233117 3.35981 0.174988 3.43372 0.174988Z" fill="#EC0000"/>
</svg>
