<svg width="31" height="25" viewBox="0 0 31 25" fill="none" xmlns="http://www.w3.org/2000/svg">
<path fill-rule="evenodd" clip-rule="evenodd" d="M14.6889 24.5305C24.7407 25.5344 29.9212 23.0945 30.2303 17.2109C30.694 8.38536 22.8818 9.33875 20.6068 7.01265C18.3313 4.68681 20.8802 7.9923 16.4985 3.17233C13.577 -0.0408981 9.6846 -0.0574006 4.82089 3.12307C0.897539 6.27379 0.473099 10.4057 3.54757 15.5187C6.62204 20.6319 10.3358 23.6359 14.6889 24.5305Z" fill="#E5E5E5"/>
<path fill-rule="evenodd" clip-rule="evenodd" d="M7.3958 15.7248C7.39529 16.1324 7.39504 16.4657 7.39453 16.8092C7.39352 17.7384 7.39276 18.6293 7.392 19.5236L16.1329 19.5239C16.3265 19.5251 16.4826 19.6827 16.4814 19.8752V20.3405C16.4786 21.3867 17.1855 22.3025 18.2017 22.5693C18.4315 22.6283 18.6727 22.6283 18.9026 22.5693C19.1365 22.5086 19.3531 22.4121 19.5495 22.2888C20.1665 21.8717 20.5585 21.1706 20.56 20.3958V7.31432V5.07098C20.5611 4.38313 20.8851 3.76729 21.3932 3.37073H20.4422H14.368L7.39656 15.2312C7.39631 15.3625 7.39605 15.521 7.3958 15.7248Z" fill="white"/>
<path fill-rule="evenodd" clip-rule="evenodd" d="M7.39809 13.5701V13.8654C7.39784 14.0775 7.39758 14.3515 7.39708 14.728V14.8168C7.39682 14.9236 7.39682 15.0506 7.39657 15.2311L14.368 3.37061H10.1041C9.55222 3.37161 9.0396 3.53463 8.6073 3.81192C7.87853 4.30875 7.39961 5.14212 7.39809 6.08776V9.91183C7.39809 10.0066 7.33854 10.0866 7.25467 10.1199C7.24605 10.1274 7.23592 10.1326 7.22629 10.1386V11.0372C7.34184 11.0482 7.43357 11.1413 7.43357 11.258V11.7176C7.43357 11.8346 7.34184 11.9276 7.22629 11.9384V13.3563C7.32435 13.3816 7.39809 13.4656 7.39809 13.5701Z" fill="#E9F4F7"/>
<path fill-rule="evenodd" clip-rule="evenodd" d="M23.1661 3.6939L22.875 3.63339C22.82 3.62714 22.7637 3.62388 22.707 3.62388C22.6621 3.62138 22.6178 3.62138 22.5729 3.62388C22.3102 3.64714 22.0709 3.73865 21.8654 3.87442C21.5059 4.13971 21.2738 4.55702 21.2674 5.02509V6.77285H24.2129V5.0896C24.2116 4.43651 23.7728 3.88342 23.1661 3.6939Z" fill="#0D4F80"/>
<path fill-rule="evenodd" clip-rule="evenodd" d="M7.43346 11.7175V11.2582C7.43346 11.1412 7.34199 11.0482 7.22644 11.0372C7.21909 11.0367 7.21301 11.0332 7.20566 11.0332C7.07972 11.0332 6.97735 11.134 6.97735 11.2582V11.7175C6.97735 11.8417 7.07972 11.9425 7.20566 11.9425C7.21301 11.9425 7.21909 11.939 7.22644 11.9382C7.34199 11.9275 7.43346 11.8345 7.43346 11.7175Z" fill="#0F2B4A"/>
<path fill-rule="evenodd" clip-rule="evenodd" d="M17.8803 9.77402H10.1104C9.98447 9.77402 9.88235 9.87478 9.88235 9.99905C9.88235 10.1233 9.98447 10.2241 10.1104 10.2241H17.8803C18.0063 10.2241 18.1081 10.1233 18.1081 9.99905C18.1081 9.87478 18.0063 9.77402 17.8803 9.77402ZM18.7781 6.54846H10.1104C9.98447 6.54846 9.88235 6.64923 9.88235 6.7735C9.88235 6.89776 9.98447 6.99853 10.1104 6.99853H18.7781C18.904 6.99853 19.0059 6.89776 19.0059 6.7735C19.0059 6.64923 18.904 6.54846 18.7781 6.54846Z" fill="#0D4F80"/>
<path fill-rule="evenodd" clip-rule="evenodd" d="M13.5381 12.9995H10.1104C9.98447 12.9995 9.8821 13.1003 9.8821 13.2245C9.8821 13.3488 9.98447 13.4496 10.1104 13.4496H13.5381C13.664 13.4496 13.7662 13.3488 13.7662 13.2245C13.7662 13.1003 13.664 12.9995 13.5381 12.9995ZM13.5381 16.225H10.1104C9.98447 16.225 9.8821 16.3257 9.8821 16.45C9.8821 16.5743 9.98447 16.675 10.1104 16.675H13.5381C13.664 16.675 13.7662 16.5743 13.7662 16.45C13.7662 16.3257 13.664 16.225 13.5381 16.225Z" fill="#A6CED7"/>
<path fill-rule="evenodd" clip-rule="evenodd" d="M2.33677 19.2428L2.03599 19.5396L1.54389 19.0538L1.05078 19.5403L0.75 19.2433L1.24311 18.7571L0.75076 18.2713L1.05154 17.9748L1.54364 18.4606L2.0365 17.9741L2.33753 18.2708L1.84442 18.7573L2.33677 19.2428Z" fill="#0F2B4A"/>
<path fill-rule="evenodd" clip-rule="evenodd" d="M28.0603 7.92759C27.6237 7.92759 27.2705 7.57734 27.2705 7.14534C27.2705 6.71359 27.6237 6.36334 28.0603 6.36334C28.4969 6.36334 28.8501 6.71359 28.8501 7.14534C28.8501 7.57734 28.4969 7.92759 28.0603 7.92759ZM28.0603 7.48184C28.2471 7.48184 28.3988 7.33134 28.3988 7.14534C28.3988 6.95934 28.2471 6.80909 28.0603 6.80909C27.8735 6.80909 27.7218 6.95934 27.7218 7.14534C27.7218 7.33134 27.8735 7.48184 28.0603 7.48184Z" fill="#6EE3FF"/>
<path fill-rule="evenodd" clip-rule="evenodd" d="M22.7476 2.91431H22.5233L10.1036 2.92081C9.4569 2.92181 8.85635 3.11334 8.35158 3.43938C7.46596 4.01147 6.87859 5.00112 6.87681 6.12879V9.9531C6.87681 10.0774 6.97893 10.1781 7.10512 10.1781C7.15048 10.1781 7.19052 10.1616 7.22625 10.1389C7.23588 10.1326 7.24576 10.1274 7.25437 10.1199C7.30176 10.0786 7.33293 10.0201 7.33293 9.9531V6.12904C7.33445 5.15614 7.84276 4.30301 8.60726 3.81194C9.03931 3.53465 9.55218 3.37162 10.1041 3.37087H14.368L20.4422 3.37062H21.3929C20.8851 3.76718 20.561 4.38328 20.56 5.07088V7.31446V20.3959C20.5585 21.1705 20.1665 21.8716 19.5495 22.2887C19.3366 22.4327 19.0974 22.5432 18.8374 22.6105C18.6076 22.6698 18.3664 22.6698 18.1365 22.6105C17.1204 22.344 16.4134 21.4278 16.4162 20.3819V19.9166C16.4177 19.7241 16.2614 19.5665 16.068 19.5653L7.3271 19.565C7.32761 18.6704 7.32837 17.7798 7.32938 16.8504C7.32989 16.5068 7.33014 16.1738 7.33065 15.766C7.33141 15.2819 7.33166 15.0424 7.33191 14.8583V14.7696C7.33242 14.3928 7.33267 14.119 7.33293 13.9067V13.6114C7.33293 13.4871 7.23106 13.3864 7.10512 13.3864C7.07497 13.3864 7.04659 13.3929 7.02049 13.4034C6.93661 13.4366 6.87681 13.5166 6.87681 13.6114C6.87681 13.8657 6.87656 14.2235 6.8758 14.8576L6.87555 14.8888C6.87555 15.0691 6.87504 15.3082 6.87453 15.7655C6.87403 16.1733 6.87352 16.5063 6.87327 16.8499C6.8725 17.765 6.87174 18.6429 6.87098 19.5238V19.565L4.69785 19.5653C4.64261 19.5653 4.59142 19.5788 4.54505 19.6015C4.42823 19.6581 4.34715 19.7763 4.34715 19.9141V20.4074C4.34563 22.0547 5.68635 23.3911 7.34104 23.3924H18.2696C18.3468 23.3924 18.4662 23.3924 18.543 23.3809C18.6793 23.3684 18.8146 23.3458 18.9474 23.3131C19.2999 23.2316 19.6245 23.0891 19.9136 22.9C20.7387 22.3605 21.267 21.4348 21.2683 20.4074V7.31446V6.77288H24.213H24.5622H24.5637C24.6463 6.77288 24.7213 6.71862 24.7814 6.67087C24.8619 6.60686 24.9144 6.50959 24.9144 6.39933V5.08963C24.9192 3.89345 23.9495 2.91956 22.7476 2.91431Z" fill="#0F2B4A"/>
<path fill-rule="evenodd" clip-rule="evenodd" d="M23.1661 3.6939L22.875 3.63339C22.82 3.62714 22.7637 3.62388 22.707 3.62388C22.6621 3.62138 22.6178 3.62138 22.5729 3.62388C22.3102 3.64714 22.0709 3.73865 21.8654 3.87442C21.5059 4.13971 21.2738 4.55702 21.2674 5.02509V6.77285H24.2129V5.0896C24.2116 4.43651 23.7728 3.88342 23.1661 3.6939Z" fill="#0D4F80"/>
<path fill-rule="evenodd" clip-rule="evenodd" d="M22.2026 14.828L21.0896 13.7301L19.9853 14.8195L19.5508 14.3907L20.6551 13.3013L19.5421 12.2031L19.9744 11.7766L21.0874 12.8747L22.1914 11.7851L22.6262 12.2139L21.5217 13.3035L22.6346 14.4017L22.2026 14.828ZM21.1418 8.95514C18.7437 8.95514 16.7996 10.8694 16.7996 13.2308C16.7996 15.5921 18.7437 17.5064 21.1418 17.5064C22.0422 17.5064 22.8781 17.2366 23.5717 16.7751C23.911 16.549 24.2153 16.2762 24.4773 15.9674C25.1055 15.2258 25.4843 14.2722 25.4843 13.2308C25.4843 10.8694 23.5402 8.95514 21.1418 8.95514Z" fill="white"/>
<path fill-rule="evenodd" clip-rule="evenodd" d="M23.5718 16.775C22.8782 17.2368 22.0423 17.5063 21.1419 17.5063C18.7435 17.5063 16.7995 15.5921 16.7995 13.2307C16.7995 10.8696 18.7435 8.95507 21.1419 8.95507C23.5403 8.95507 25.4844 10.8696 25.4844 13.2307C25.4844 14.2721 25.1056 15.226 24.4772 15.9676C24.2154 16.2764 23.9111 16.549 23.5718 16.775ZM27.4584 18.9046L24.8 16.2854C25.51 15.4615 25.9408 14.3964 25.9408 13.2307C25.9408 10.6208 23.792 8.505 21.1419 8.505C19.4964 8.505 18.0452 9.32163 17.1808 10.5651C17.1421 10.6211 17.1074 10.6801 17.0711 10.7378C17.0311 10.8013 16.9898 10.8641 16.9528 10.9296C16.9191 10.9886 16.8889 11.0501 16.8578 11.1109C16.823 11.1789 16.7883 11.2472 16.7567 11.3172C16.7295 11.3779 16.7042 11.4397 16.6796 11.5017C16.65 11.576 16.6218 11.6507 16.596 11.7267C16.5752 11.7877 16.5555 11.849 16.537 11.911C16.5129 11.993 16.4919 12.0763 16.4718 12.16C16.4581 12.2186 16.4437 12.2771 16.432 12.3366C16.4136 12.4321 16.3996 12.5294 16.3869 12.6266C16.3806 12.6769 16.3717 12.7264 16.3667 12.7771C16.3525 12.9267 16.3436 13.0777 16.3436 13.2307C16.3436 13.3875 16.3522 13.5423 16.3672 13.695C16.3725 13.7478 16.3826 13.7988 16.3895 13.8508C16.4027 13.9498 16.4161 14.0488 16.4353 14.1458C16.4478 14.2081 16.4645 14.2689 16.4794 14.3301C16.4997 14.4141 16.52 14.4981 16.5448 14.5802C16.5648 14.6464 16.5884 14.7112 16.6112 14.7762C16.6373 14.8499 16.6634 14.9237 16.693 14.996C16.7212 15.0642 16.7518 15.1312 16.783 15.198C16.8132 15.2628 16.8441 15.327 16.8773 15.3903C16.914 15.46 16.9525 15.5288 16.9923 15.5963C17.0253 15.6518 17.059 15.7068 17.0939 15.7608C17.1398 15.8321 17.1874 15.9021 17.2371 15.9704C17.27 16.0159 17.3045 16.0604 17.339 16.1046C17.3957 16.1771 17.4535 16.2492 17.5146 16.3184C17.5445 16.3524 17.5759 16.3849 17.6068 16.4182C17.6767 16.4934 17.7477 16.5675 17.8224 16.638C17.8437 16.658 17.866 16.6767 17.8876 16.6967C18.5968 17.3411 19.5022 17.7794 20.5074 17.9104C20.7157 17.9377 20.9266 17.9564 21.1419 17.9564C22.1679 17.9564 23.1164 17.6369 23.8964 17.0968L26.594 19.7544C26.8327 19.9895 27.2192 19.9895 27.4581 19.7547C27.4584 19.7544 27.4589 19.7539 27.4591 19.7537C27.6966 19.5189 27.6961 19.1388 27.4584 18.9046Z" fill="#0F2B4A"/>
<path fill-rule="evenodd" clip-rule="evenodd" d="M22.626 12.2139L22.1911 11.7851L21.0871 12.8748L19.9742 11.7766L19.5419 12.2032L20.6548 13.3011L19.5505 14.3908L19.9851 14.8196L21.0896 13.7299L22.2023 14.8281L22.6343 14.4018L21.5217 13.3036L22.626 12.2139Z" fill="#EC0000"/>
<path fill-rule="evenodd" clip-rule="evenodd" d="M17.8223 16.638C17.7476 16.5675 17.6769 16.4932 17.6067 16.4182C17.5758 16.3852 17.5444 16.3524 17.5145 16.3184C17.4536 16.2492 17.3956 16.1772 17.3391 16.1047C17.3044 16.0604 17.2702 16.0159 17.237 15.9704C17.1873 15.9021 17.1399 15.8319 17.0938 15.7608C17.0589 15.7066 17.0252 15.6518 16.9925 15.5963C16.9524 15.5286 16.9139 15.4601 16.8774 15.3903C16.8442 15.327 16.8136 15.2628 16.7829 15.198C16.7517 15.1313 16.7211 15.0642 16.693 14.996C16.6636 14.9237 16.6375 14.85 16.6114 14.7762C16.5886 14.7112 16.5647 14.6464 16.5447 14.5802C16.5196 14.4979 16.4996 14.4139 16.4793 14.3301C16.4646 14.2686 16.4477 14.2081 16.4352 14.1459C16.4157 14.0488 16.4026 13.9498 16.3896 13.8508C16.3825 13.7988 16.3724 13.7475 16.3673 13.695C16.3521 13.5423 16.3435 13.3875 16.3435 13.2307C16.3435 13.0777 16.3524 12.9267 16.3668 12.7772C16.3716 12.7264 16.3808 12.6769 16.3871 12.6266C16.3998 12.5291 16.4132 12.4321 16.4322 12.3366C16.4439 12.2771 16.4581 12.2186 16.472 12.1601C16.4918 12.0763 16.5128 11.993 16.5371 11.911C16.5554 11.849 16.5751 11.7878 16.5959 11.7267C16.622 11.6507 16.6499 11.576 16.6795 11.5017C16.7044 11.4397 16.7297 11.3779 16.7568 11.3172C16.7885 11.2472 16.8229 11.1789 16.8577 11.1109C16.8888 11.0501 16.9192 10.9886 16.9527 10.9294C16.9899 10.8641 17.0307 10.8014 17.071 10.7379C17.1075 10.6801 17.142 10.6211 17.181 10.5651C17.2573 10.4553 17.3381 10.3488 17.4232 10.2463C16.5105 11.1504 15.9464 12.3971 15.9464 13.7738C15.9464 16.3669 17.9465 18.4985 20.5076 18.7493V17.9104C19.5024 17.7792 18.597 17.3411 17.8877 16.6965C17.8662 16.6767 17.8436 16.658 17.8223 16.638Z" fill="#C6ECF6"/>
</svg>
