<svg width="6" height="5" viewBox="0 0 6 5" fill="none" xmlns="http://www.w3.org/2000/svg">
<path fill-rule="evenodd" clip-rule="evenodd" d="M2.75 4.75C4.1307 4.75 5.25 4.17574 5.25 3.46738C5.25 2.95818 4.67163 2.51828 3.83355 2.31117C3.8261 2.14901 3.77812 1.98815 3.68937 1.84274L2.90655 0.560107C2.84687 0.462295 2.80563 0.357474 2.78272 0.25L2.75 0.30359C2.55624 0.62105 2.55624 1.01218 2.74998 1.32966L3.37626 2.35577C3.57001 2.67325 3.57001 3.0644 3.37626 3.38187L3.34353 3.43548C3.32063 3.32799 3.27938 3.22318 3.2197 3.12537L2.64636 2.18598L2.2803 1.58619C2.22062 1.48838 2.17937 1.38356 2.15647 1.27608L2.12374 1.32969C1.93064 1.64609 1.93004 2.03564 2.12184 2.35253L2.12179 2.35256L2.75 3.38187C2.94376 3.69935 2.94376 4.09048 2.75 4.40797L2.71729 4.46156C2.69437 4.35409 2.65315 4.24927 2.59345 4.15146L1.81063 2.86882C1.70564 2.6968 1.65766 2.50314 1.66645 2.31131C0.828417 2.51843 0.25 2.9582 0.25 3.46738C0.25 4.17574 1.3693 4.75 2.75 4.75Z" fill="#EC0000"/>
</svg>
