<svg width="41" height="41" viewBox="0 0 41 41" fill="none" xmlns="http://www.w3.org/2000/svg">
<path fill-rule="evenodd" clip-rule="evenodd" d="M20.0346 32.2194C30.0864 33.2233 35.2669 30.7835 35.576 24.8998C36.0397 16.0743 28.2275 17.0277 25.9525 14.7016C23.677 12.3757 26.2259 15.6812 21.8441 10.8612C18.9227 7.64801 15.0303 7.6315 10.1666 10.812C6.24323 13.9627 5.81879 18.0946 8.89326 23.2076C11.9677 28.3208 15.6815 31.3248 20.0346 32.2194Z" fill="#E5E5E5"/>
<path fill-rule="evenodd" clip-rule="evenodd" d="M12.7415 23.4137C12.741 23.8213 12.7407 24.1546 12.7402 24.4981C12.7392 25.4272 12.7384 26.3181 12.7377 27.2125L21.4786 27.2128C21.6722 27.214 21.8283 27.3715 21.827 27.5641V28.0294C21.8242 29.0755 22.5312 29.9914 23.5473 30.2582C23.7772 30.3172 24.0184 30.3172 24.2482 30.2582C24.4821 30.1975 24.6988 30.1009 24.8952 29.9777C25.5122 29.5606 25.9042 28.8595 25.9057 28.0846V15.0032V12.7599C25.9067 12.072 26.2308 11.4562 26.7389 11.0596H25.7879H19.7137L12.7422 22.9201C12.742 23.0514 12.7417 23.2099 12.7415 23.4137" fill="white"/>
<path fill-rule="evenodd" clip-rule="evenodd" d="M12.7438 21.2591V21.5544C12.7436 21.7664 12.7433 22.0404 12.7428 22.417V22.5057C12.7426 22.6125 12.7426 22.7395 12.7423 22.9201L19.7138 11.0595H15.4499C14.898 11.0605 14.3853 11.2236 13.953 11.5009C13.2243 11.9977 12.7453 12.8311 12.7438 13.7767V17.6008C12.7438 17.6955 12.6843 17.7755 12.6004 17.8088C12.5918 17.8163 12.5817 17.8215 12.572 17.8275V18.7262C12.6876 18.7372 12.7793 18.8302 12.7793 18.947V19.4065C12.7793 19.5236 12.6876 19.6166 12.572 19.6273V21.0453C12.6701 21.0705 12.7438 21.1545 12.7438 21.2591" fill="#E9F4F7"/>
<path fill-rule="evenodd" clip-rule="evenodd" d="M28.5119 11.3828L28.2207 11.3223C28.1657 11.316 28.1095 11.3128 28.0527 11.3128C28.0079 11.3103 27.9635 11.3103 27.9187 11.3128C27.6559 11.336 27.4167 11.4276 27.2112 11.5633C26.8516 11.8286 26.6195 12.2459 26.6132 12.714V14.4618H29.5586V12.7785C29.5574 12.1254 29.1185 11.5723 28.5119 11.3828" fill="#0D4F80"/>
<path fill-rule="evenodd" clip-rule="evenodd" d="M12.7792 19.4064V18.9471C12.7792 18.8301 12.6877 18.7371 12.5721 18.7261C12.5648 18.7256 12.5587 18.7221 12.5514 18.7221C12.4254 18.7221 12.3231 18.8229 12.3231 18.9471V19.4064C12.3231 19.5306 12.4254 19.6314 12.5514 19.6314C12.5587 19.6314 12.5648 19.6279 12.5721 19.6271C12.6877 19.6164 12.7792 19.5234 12.7792 19.4064" fill="#0F2B4A"/>
<path fill-rule="evenodd" clip-rule="evenodd" d="M23.226 17.4629H15.4561C15.3301 17.4629 15.228 17.5637 15.228 17.688C15.228 17.8122 15.3301 17.913 15.4561 17.913H23.226C23.3519 17.913 23.4538 17.8122 23.4538 17.688C23.4538 17.5637 23.3519 17.4629 23.226 17.4629ZM24.1238 14.2374H15.4561C15.3301 14.2374 15.228 14.3381 15.228 14.4624C15.228 14.5867 15.3301 14.6874 15.4561 14.6874H24.1238C24.2497 14.6874 24.3516 14.5867 24.3516 14.4624C24.3516 14.3381 24.2497 14.2374 24.1238 14.2374Z" fill="#0D4F80"/>
<path fill-rule="evenodd" clip-rule="evenodd" d="M18.8838 20.6884H15.4561C15.3302 20.6884 15.2278 20.7892 15.2278 20.9134C15.2278 21.0377 15.3302 21.1385 15.4561 21.1385H18.8838C19.0097 21.1385 19.1119 21.0377 19.1119 20.9134C19.1119 20.7892 19.0097 20.6884 18.8838 20.6884ZM18.8838 23.9139H15.4561C15.3302 23.9139 15.2278 24.0146 15.2278 24.1389C15.2278 24.2632 15.3302 24.3639 15.4561 24.3639H18.8838C19.0097 24.3639 19.1119 24.2632 19.1119 24.1389C19.1119 24.0146 19.0097 23.9139 18.8838 23.9139Z" fill="#A6CED7"/>
<path fill-rule="evenodd" clip-rule="evenodd" d="M7.68248 26.9317L7.38169 27.2285L6.8896 26.7427L6.39649 27.2292L6.0957 26.9322L6.58881 26.446L6.09646 25.9602L6.39725 25.6637L6.88934 26.1495L7.3822 25.663L7.68324 25.9597L7.19013 26.4462L7.68248 26.9317Z" fill="#0F2B4A"/>
<path fill-rule="evenodd" clip-rule="evenodd" d="M33.406 15.6165C32.9694 15.6165 32.6161 15.2662 32.6161 14.8342C32.6161 14.4025 32.9694 14.0522 33.406 14.0522C33.8426 14.0522 34.1958 14.4025 34.1958 14.8342C34.1958 15.2662 33.8426 15.6165 33.406 15.6165ZM33.406 15.1707C33.5927 15.1707 33.7445 15.0202 33.7445 14.8342C33.7445 14.6482 33.5927 14.498 33.406 14.498C33.2192 14.498 33.0675 14.6482 33.0675 14.8342C33.0675 15.0202 33.2192 15.1707 33.406 15.1707Z" fill="#6EE3FF"/>
<path fill-rule="evenodd" clip-rule="evenodd" d="M28.0933 10.6032H27.8691L15.4493 10.6097C14.8026 10.6107 14.2021 10.8022 13.6973 11.1283C12.8117 11.7003 12.2243 12.69 12.2225 13.8177V17.642C12.2225 17.7662 12.3247 17.867 12.4508 17.867C12.4962 17.867 12.5362 17.8505 12.572 17.8278C12.5816 17.8215 12.5915 17.8163 12.6001 17.8088C12.6475 17.7675 12.6787 17.709 12.6787 17.642V13.8179C12.6802 12.845 13.1885 11.9919 13.953 11.5008C14.385 11.2235 14.8979 11.0605 15.4498 11.0597H19.7137L25.7879 11.0595H26.7387C26.2308 11.4561 25.9068 12.0721 25.9057 12.7598V15.0033V28.0848C25.9042 28.8594 25.5122 29.5605 24.8952 29.9776C24.6823 30.1216 24.4431 30.2321 24.1831 30.2994C23.9533 30.3586 23.7121 30.3586 23.4822 30.2994C22.4661 30.0328 21.7591 29.1167 21.7619 28.0708V27.6055C21.7635 27.4129 21.6071 27.2554 21.4138 27.2542L12.6728 27.2539C12.6733 26.3593 12.6741 25.4686 12.6751 24.5393C12.6756 24.1957 12.6759 23.8627 12.6764 23.4548C12.6771 22.9708 12.6774 22.7312 12.6776 22.5472V22.4584C12.6781 22.0816 12.6784 21.8078 12.6787 21.5956V21.3003C12.6787 21.176 12.5768 21.0752 12.4508 21.0752C12.4207 21.0752 12.3923 21.0817 12.3662 21.0922C12.2823 21.1255 12.2225 21.2055 12.2225 21.3003C12.2225 21.5546 12.2223 21.9124 12.2215 22.5465L12.2213 22.5777C12.2213 22.758 12.2208 22.997 12.2203 23.4543C12.2198 23.8622 12.2192 24.1952 12.219 24.5388C12.2182 25.4539 12.2175 26.3318 12.2167 27.2127V27.2539L10.0436 27.2542C9.98833 27.2542 9.93715 27.2677 9.89078 27.2904C9.77396 27.3469 9.69287 27.4652 9.69287 27.603V28.0963C9.69135 29.7435 11.0321 31.08 12.6868 31.0812H23.6153C23.6926 31.0812 23.8119 31.0812 23.8887 31.0697C24.025 31.0572 24.1603 31.0347 24.2931 31.002C24.6456 30.9205 24.9702 30.7779 25.2593 30.5889C26.0844 30.0493 26.6127 29.1237 26.614 28.0963V15.0033V14.4618H29.5587H29.9079H29.9094C29.992 14.4618 30.067 14.4075 30.1271 14.3597C30.2077 14.2957 30.2601 14.1985 30.2601 14.0882V12.7785C30.2649 11.5823 29.2952 10.6084 28.0933 10.6032" fill="#0F2B4A"/>
<path fill-rule="evenodd" clip-rule="evenodd" d="M28.5119 11.3828L28.2207 11.3223C28.1657 11.316 28.1095 11.3128 28.0527 11.3128C28.0079 11.3103 27.9635 11.3103 27.9187 11.3128C27.6559 11.336 27.4167 11.4276 27.2112 11.5633C26.8516 11.8286 26.6195 12.2459 26.6132 12.714V14.4618H29.5586V12.7785C29.5574 12.1254 29.1185 11.5723 28.5119 11.3828" fill="#0D4F80"/>
<path fill-rule="evenodd" clip-rule="evenodd" d="M27.5483 22.5169L26.4353 21.419L25.331 22.5084L24.8965 22.0796L26.0008 20.9902L24.8878 19.892L25.3201 19.4655L26.4331 20.5636L27.5371 19.474L27.9719 19.9028L26.8674 20.9924L27.9803 22.0906L27.5483 22.5169ZM26.4875 16.644C24.0894 16.644 22.1453 18.5583 22.1453 20.9197C22.1453 23.281 24.0894 25.1953 26.4875 25.1953C27.3879 25.1953 28.2238 24.9255 28.9174 24.464C29.2567 24.2379 29.561 23.9651 29.823 23.6563C30.4512 22.9147 30.83 21.9611 30.83 20.9197C30.83 18.5583 28.8859 16.644 26.4875 16.644V16.644Z" fill="white"/>
<path fill-rule="evenodd" clip-rule="evenodd" d="M28.9175 24.4639C28.2239 24.9257 27.388 25.1952 26.4877 25.1952C24.0893 25.1952 22.1452 23.281 22.1452 20.9196C22.1452 18.5585 24.0893 16.644 26.4877 16.644C28.8861 16.644 30.8301 18.5585 30.8301 20.9196C30.8301 21.961 30.4513 22.9149 29.8229 23.6565C29.5611 23.9653 29.2568 24.2379 28.9175 24.4639V24.4639ZM32.8041 26.5935L30.1457 23.9743C30.8557 23.1504 31.2865 22.0853 31.2865 20.9196C31.2865 18.3097 29.1377 16.1939 26.4877 16.1939C24.8421 16.1939 23.3909 17.0105 22.5266 18.254C22.4878 18.31 22.4531 18.369 22.4168 18.4267C22.3768 18.4903 22.3355 18.553 22.2985 18.6185C22.2648 18.6775 22.2346 18.739 22.2035 18.7998C22.1688 18.8678 22.134 18.9361 22.1024 19.0061C22.0753 19.0668 22.0499 19.1286 22.0253 19.1906C21.9957 19.2649 21.9676 19.3396 21.9417 19.4156C21.9209 19.4766 21.9012 19.5379 21.8827 19.5999C21.8586 19.6819 21.8376 19.7652 21.8176 19.849C21.8039 19.9075 21.7894 19.966 21.7778 20.0255C21.7593 20.121 21.7453 20.2183 21.7327 20.3155C21.7263 20.3658 21.7175 20.4153 21.7124 20.466C21.6982 20.6156 21.6893 20.7666 21.6893 20.9196C21.6893 21.0764 21.6979 21.2312 21.7129 21.3839C21.7182 21.4367 21.7284 21.4877 21.7352 21.5397C21.7484 21.6387 21.7618 21.7377 21.7811 21.8347C21.7935 21.897 21.8102 21.9578 21.8252 22.019C21.8454 22.103 21.8657 22.1871 21.8905 22.2691C21.9105 22.3353 21.9341 22.4001 21.9569 22.4651C21.983 22.5389 22.0091 22.6126 22.0388 22.6849C22.0669 22.7531 22.0976 22.8201 22.1287 22.8869C22.1589 22.9517 22.1898 23.0159 22.223 23.0792C22.2597 23.1489 22.2982 23.2177 22.338 23.2852C22.371 23.3407 22.4047 23.3957 22.4396 23.4497C22.4855 23.521 22.5331 23.591 22.5828 23.6593C22.6158 23.7048 22.6502 23.7493 22.6847 23.7935C22.7414 23.8661 22.7992 23.9381 22.8603 24.0073C22.8902 24.0413 22.9216 24.0738 22.9525 24.1071C23.0225 24.1823 23.0934 24.2564 23.1682 24.3269C23.1894 24.3469 23.2117 24.3656 23.2333 24.3856C23.9425 25.03 24.8479 25.4683 25.8532 25.5993C26.0614 25.6266 26.2723 25.6453 26.4877 25.6453C27.5137 25.6453 28.4621 25.3258 29.2421 24.7857L31.9398 27.4433C32.1785 27.6784 32.5649 27.6784 32.8038 27.4436C32.8041 27.4433 32.8046 27.4428 32.8049 27.4426C33.0423 27.2078 33.0418 26.8277 32.8041 26.5935Z" fill="#0F2B4A"/>
<path fill-rule="evenodd" clip-rule="evenodd" d="M27.9717 19.9029L27.5368 19.474L26.4328 20.5637L25.3199 19.4655L24.8876 19.8921L26.0005 20.99L24.8962 22.0797L25.3308 22.5085L26.4353 21.4188L27.548 22.517L27.98 22.0907L26.8674 20.9925L27.9717 19.9029Z" fill="#EC0000"/>
<path fill-rule="evenodd" clip-rule="evenodd" d="M23.168 24.3269C23.0933 24.2564 23.0226 24.1821 22.9524 24.1071C22.9215 24.0741 22.89 24.0413 22.8601 24.0073C22.7993 23.9381 22.7413 23.8661 22.6848 23.7936C22.6501 23.7493 22.6159 23.7048 22.5827 23.6593C22.533 23.591 22.4856 23.5208 22.4395 23.4498C22.4045 23.3955 22.3708 23.3407 22.3381 23.2852C22.2981 23.2175 22.2596 23.149 22.2231 23.0792C22.1899 23.0159 22.1592 22.9517 22.1286 22.8869C22.0974 22.8202 22.0668 22.7531 22.0386 22.6849C22.0092 22.6126 21.9831 22.5389 21.957 22.4651C21.9342 22.4001 21.9104 22.3353 21.8904 22.2691C21.8653 22.1868 21.8453 22.1028 21.825 22.019C21.8103 21.9575 21.7933 21.897 21.7809 21.8348C21.7614 21.7377 21.7482 21.6387 21.7353 21.5397C21.7282 21.4877 21.7181 21.4365 21.713 21.3839C21.6978 21.2312 21.6892 21.0764 21.6892 20.9196C21.6892 20.7666 21.6981 20.6156 21.7125 20.4661C21.7173 20.4153 21.7264 20.3658 21.7328 20.3155C21.7454 20.218 21.7589 20.121 21.7779 20.0255C21.7895 19.966 21.8037 19.9075 21.8177 19.849C21.8374 19.7652 21.8585 19.6819 21.8828 19.5999C21.901 19.5379 21.9208 19.4767 21.9416 19.4157C21.9677 19.3396 21.9955 19.2649 22.0252 19.1906C22.05 19.1286 22.0754 19.0668 22.1025 19.0061C22.1342 18.9361 22.1686 18.8678 22.2033 18.7998C22.2345 18.7391 22.2649 18.6775 22.2984 18.6183C22.3356 18.553 22.3764 18.4903 22.4167 18.4268C22.4532 18.369 22.4876 18.31 22.5267 18.254C22.6029 18.1442 22.6838 18.0377 22.7689 17.9352C21.8562 18.8393 21.2921 20.086 21.2921 21.4627C21.2921 24.0558 23.2922 26.1874 25.8533 26.4382V25.5993C24.848 25.4681 23.9427 25.03 23.2334 24.3854C23.2119 24.3656 23.1893 24.3469 23.168 24.3269" fill="#C6ECF6"/>
<circle cx="26.4707" cy="20.8139" r="3.125" fill="white"/>
<g clip-path="url(#clip0_3534_31646)">
<path d="M27.4518 23.227L27.4518 23.227C27.4517 23.2264 27.4515 23.2258 27.4513 23.225C27.4497 23.2189 27.4463 23.2063 27.4446 23.1917C27.4444 23.1908 27.4442 23.1899 27.444 23.189C27.443 23.1839 27.442 23.1769 27.442 23.1685V21.8412C27.442 21.7151 27.5419 21.6083 27.6709 21.6083C27.7999 21.6083 27.8998 21.7151 27.8998 21.8412V22.6874C28.3113 22.261 28.5887 21.5899 28.5887 20.9389C28.5887 19.763 27.6599 18.8109 26.5242 18.8109C25.3886 18.8109 24.4598 19.763 24.4598 20.9389C24.4598 22.1148 25.3886 23.0669 26.5242 23.0669C26.6533 23.0669 26.7531 23.1737 26.7531 23.2998C26.7531 23.4259 26.6533 23.5327 26.5242 23.5327C25.1308 23.5327 24.002 22.3665 24.002 20.9389C24.002 19.5113 25.1308 18.3452 26.5242 18.3452C27.9177 18.3452 29.0465 19.5113 29.0465 20.9389C29.0465 21.6686 28.7489 22.42 28.2923 22.9356H28.9605C29.0896 22.9356 29.1895 23.0424 29.1895 23.1685C29.1895 23.2946 29.0896 23.4014 28.9605 23.4014H27.6709C27.6291 23.4014 27.594 23.3885 27.5668 23.3742C27.5578 23.3695 27.551 23.3646 27.5474 23.3619L27.5436 23.359C27.5433 23.3588 27.5431 23.3587 27.543 23.3586L27.4518 23.227ZM27.4518 23.227C27.452 23.2276 27.4521 23.2282 27.4523 23.2289M27.4518 23.227L27.4523 23.2289M27.4523 23.2289C27.454 23.2357 27.4574 23.2489 27.4633 23.2631M27.4523 23.2289L27.4633 23.2631M27.4633 23.2631C27.4635 23.2637 27.4637 23.2642 27.4639 23.2649C27.4655 23.2697 27.468 23.2765 27.4722 23.2839C27.4778 23.2939 27.4841 23.3013 27.4891 23.3063C27.4895 23.3067 27.4899 23.3071 27.4903 23.3074C27.505 23.3273 27.5226 23.3444 27.543 23.3586L27.4633 23.2631Z" fill="#0F2B4A" stroke="#0F2B4A" stroke-width="0.1875"/>
</g>
<defs>
<clipPath id="clip0_3534_31646">
<rect width="6" height="6" fill="white" transform="translate(23.5957 17.9389)"/>
</clipPath>
</defs>
</svg>
