<svg width="7" height="8" viewBox="0 0 7 8" fill="none" xmlns="http://www.w3.org/2000/svg">
<path fill-rule="evenodd" clip-rule="evenodd" d="M6.54065 5.24996C6.63277 5.24996 6.70732 5.32437 6.70732 5.41632V6.26147C6.70732 6.99029 6.11324 7.58329 5.3831 7.58329H1.36584C0.635702 7.58329 0.041626 6.99029 0.041626 6.26147V5.41632C0.041626 5.32437 0.11617 5.24996 0.208293 5.24996C0.300415 5.24996 0.374959 5.32437 0.374959 5.41632V6.26147C0.374959 6.80671 0.819621 7.25056 1.36584 7.25056H5.3831C5.92932 7.25056 6.37398 6.80671 6.37398 6.26147V5.41632C6.37398 5.32437 6.44853 5.24996 6.54065 5.24996ZM3.37496 0.916626C3.4735 0.916626 3.55323 0.994132 3.55323 1.08991V5.3252L4.57064 4.33624C4.64028 4.26854 4.75309 4.26854 4.82273 4.33624C4.89237 4.40393 4.89237 4.51359 4.82273 4.58128L3.50122 5.86584C3.48473 5.88191 3.46497 5.89467 3.44303 5.90349C3.39946 5.921 3.35046 5.921 3.30689 5.90349C3.28495 5.89467 3.26519 5.88191 3.2487 5.86584L1.92719 4.58128C1.89237 4.54743 1.87496 4.50309 1.87496 4.45876C1.87496 4.41442 1.89237 4.37008 1.92719 4.33624C1.99683 4.26854 2.10964 4.26854 2.17928 4.33624L3.19669 5.3252V1.08991C3.19669 0.994132 3.27642 0.916626 3.37496 0.916626Z" fill="#EC0000"/>
</svg>
