<svg width="6" height="5" viewBox="0 0 6 5" fill="none" xmlns="http://www.w3.org/2000/svg">
<path fill-rule="evenodd" clip-rule="evenodd" d="M2.625 4.92499C4.0057 4.92499 5.125 4.35073 5.125 3.64237C5.125 3.13317 4.54663 2.69327 3.70855 2.48616C3.7011 2.324 3.65312 2.16313 3.56437 2.01773L2.78155 0.735094C2.72187 0.637283 2.68063 0.532462 2.65772 0.424988L2.625 0.478578C2.43124 0.796038 2.43124 1.18717 2.62498 1.50464L3.25126 2.53076C3.44501 2.84824 3.44501 3.23938 3.25126 3.55686L3.21853 3.61047C3.19563 3.50298 3.15438 3.39817 3.0947 3.30036L2.52136 2.36097L2.1553 1.76118C2.09562 1.66337 2.05437 1.55855 2.03147 1.45107L1.99874 1.50468C1.80564 1.82107 1.80504 2.21063 1.99684 2.52752L1.99679 2.52755L2.625 3.55686C2.81876 3.87434 2.81876 4.26547 2.625 4.58296L2.59229 4.63655C2.56937 4.52908 2.52815 4.42425 2.46845 4.32644L1.68563 3.04381C1.58064 2.87179 1.53266 2.67813 1.54145 2.48629C0.703417 2.69341 0.125 3.13319 0.125 3.64237C0.125 4.35073 1.2443 4.92499 2.625 4.92499Z" fill="#EC0000"/>
</svg>
