<svg width="9" height="9" viewBox="0 0 9 9" fill="none" xmlns="http://www.w3.org/2000/svg">
<g clip-path="url(#clip0_1018_14616)">
<path fill-rule="evenodd" clip-rule="evenodd" d="M2.919 0.916626C3.03418 0.916626 3.12738 1.00982 3.12738 1.125C3.12738 1.24017 3.03418 1.33337 2.919 1.33337H2.6972C2.0143 1.33337 1.45837 1.8893 1.45837 2.5722V5.92772C1.45837 6.61062 2.0143 7.16655 2.6972 7.16655H6.05394C6.73684 7.16655 7.29277 6.61062 7.29277 5.92772V5.70795C7.29277 5.59278 7.38597 5.49958 7.50114 5.49958C7.61632 5.49958 7.70951 5.59278 7.70951 5.70795V5.92772C7.70951 6.84056 6.96678 7.58329 6.05394 7.58329H2.6972C1.78436 7.58329 1.04163 6.84056 1.04163 5.92772V2.5722C1.04163 1.65936 1.78436 0.916626 2.6972 0.916626H2.919ZM7.49056 0.927207C7.51768 0.927207 7.54466 0.932701 7.57012 0.943232C7.62115 0.964344 7.6618 1.00499 7.68291 1.05602C7.69344 1.08148 7.69893 1.10846 7.69893 1.13558V3.32022C7.69893 3.4354 7.60573 3.5286 7.49056 3.5286C7.37539 3.5286 7.28219 3.4354 7.28219 3.32022V1.6386L4.53144 4.38935C4.49074 4.43005 4.43743 4.45039 4.38412 4.45039C4.3308 4.45039 4.27749 4.43005 4.23679 4.38935C4.1554 4.30795 4.1554 4.17609 4.23679 4.0947L6.98754 1.34395H5.30592C5.19074 1.34395 5.09754 1.25075 5.09754 1.13558C5.09754 1.0204 5.19074 0.927207 5.30592 0.927207H7.49056Z" fill="#EC0000"/>
</g>
<defs>
<clipPath id="clip0_1018_14616">
<rect width="8" height="8" fill="white" transform="translate(0.375 0.25)"/>
</clipPath>
</defs>
</svg>
